<svg version="1.1" id="Layer_1" xmlns="http://www.w3.org/2000/svg" xmlns:xlink="http://www.w3.org/1999/xlink" x="0px" y="0px"
	 width="100%" viewBox="0 0 1200 1200" enable-background="new 0 0 1200 1200" xml:space="preserve">
<path fill="#34008C" opacity="1.000000" stroke="none" 
	d="
M635.000000,1201.000000 
	C423.333344,1201.000000 212.166672,1201.000000 1.000000,1201.000000 
	C1.000000,801.000000 1.000000,401.000000 1.000000,1.000000 
	C401.000000,1.000000 801.000000,1.000000 1201.000000,1.000000 
	C1201.000000,401.000000 1201.000000,801.000000 1201.000000,1201.000000 
	C1012.500000,1201.000000 824.000000,1201.000000 635.000000,1201.000000 
M326.498871,667.081604 
	C339.829895,667.081543 353.167206,667.306519 366.487762,666.932861 
	C370.095154,666.831726 374.126678,665.643127 377.123779,663.674866 
	C381.997925,660.474121 383.164368,654.872131 381.302948,649.442627 
	C379.459839,644.066528 374.980896,640.696899 368.690552,640.628845 
	C354.528046,640.475586 340.362915,640.574707 326.198914,640.541870 
	C324.482758,640.537903 322.766968,640.354126 320.385254,640.214783 
	C323.535583,634.628601 326.257935,629.801270 329.106079,624.750916 
	C330.048706,625.751648 330.726776,626.462891 331.395508,627.182922 
	C336.367310,632.536316 340.528870,632.463135 345.015472,626.838074 
	C346.883026,624.496643 348.707672,622.100037 350.322968,619.581726 
	C358.970490,606.099792 359.890167,592.375122 350.512695,578.962646 
	C347.414093,574.530823 343.400879,570.443970 339.022736,567.284546 
	C334.700317,564.165344 335.201019,562.149109 337.845490,558.197449 
	C344.216583,548.677246 344.637665,538.480896 338.722595,528.516602 
	C336.551971,524.859985 333.459229,521.750732 331.186005,518.893250 
	C331.550964,514.117920 331.627106,509.526489 332.387634,505.051331 
	C332.667145,503.406616 334.270111,501.425659 335.795746,500.690826 
	C337.869659,499.691925 340.448517,499.741364 342.845947,499.335266 
	C343.308075,504.605164 343.718048,509.280487 344.128021,513.955811 
	C344.663513,513.947571 345.198975,513.939392 345.734436,513.931152 
	C346.198792,513.315430 347.054047,512.707336 347.066254,512.082764 
	C347.173645,506.587708 347.385468,501.069275 346.946442,495.607574 
	C346.841980,494.307831 344.587952,492.501526 343.024231,492.105011 
	C329.488770,488.672760 315.900604,485.441986 302.290710,482.313995 
	C298.929565,481.541473 295.259338,480.453217 292.025940,481.065765 
	C275.861145,484.128235 259.779755,487.642700 243.718842,491.221680 
	C242.317032,491.534058 241.276535,493.467712 240.068222,494.648346 
	C241.188843,495.725159 242.130905,497.311493 243.465027,497.779022 
	C246.860382,498.968781 250.431000,499.658325 254.014893,500.569305 
	C254.014893,505.272552 253.598190,509.651031 254.167984,513.897156 
	C254.521317,516.530212 253.926132,517.596130 251.819748,518.954834 
	C237.667206,528.083801 234.207932,545.906372 244.077393,559.432739 
	C246.401505,562.618042 246.322784,564.201904 243.008362,566.534363 
	C234.959534,572.198669 228.566895,579.374268 225.551590,589.005432 
	C221.536942,601.828674 227.708435,621.089294 238.350845,629.305115 
	C241.635498,631.840820 245.708847,631.514832 248.689209,628.451416 
	C249.869705,627.237976 251.004532,625.980103 252.268326,624.626587 
	C255.207382,630.158630 257.799377,635.037476 260.730835,640.555176 
	C248.527405,640.555176 237.160568,641.243591 225.915741,640.366821 
	C214.017700,639.439209 207.441940,647.809570 197.678040,653.419128 
	C202.411453,656.747742 206.327988,659.155029 209.838516,662.054016 
	C214.766342,666.123413 220.230927,667.218750 226.516769,667.179077 
	C259.509674,666.970703 292.504608,667.081604 326.498871,667.081604 
M986.937134,606.499695 
	C986.937134,600.071472 986.937134,593.643188 986.937134,587.359863 
	C982.897278,587.359863 979.507874,587.359863 975.702393,587.359863 
	C975.702393,594.081482 975.702393,600.438660 975.702393,607.959167 
	C972.211121,602.674011 968.876465,598.653320 966.693848,594.082520 
	C963.372375,587.126587 958.270935,585.599548 951.216553,587.469421 
	C951.216553,599.810181 951.216553,612.205139 951.216553,624.720459 
	C954.830811,624.720459 958.217163,624.720459 962.123291,624.720459 
	C962.123291,618.115662 962.123291,611.783020 962.123291,605.015625 
	C962.888855,605.665283 963.177429,605.820435 963.339417,606.060913 
	C966.126648,610.197876 968.907043,614.339539 971.671265,618.491882 
	C976.742065,626.109131 977.079102,626.247375 986.937134,624.339539 
	C986.937134,618.768555 986.937134,613.133606 986.937134,606.499695 
M409.061737,623.715942 
	C410.350189,624.055115 411.622650,624.482300 412.929596,624.719849 
	C427.427521,627.354858 437.533661,617.270874 434.568085,603.370667 
	C428.110779,603.370667 421.697235,603.370667 415.395721,603.370667 
	C415.395721,606.031006 415.395721,608.307007 415.395721,611.185059 
	C418.777344,611.185059 421.936310,611.185059 425.512299,611.185059 
	C421.654236,616.107422 416.427460,617.038208 411.993866,614.115967 
	C408.159515,611.588745 406.879578,604.665833 409.399658,600.084412 
	C411.469727,596.321106 416.127533,595.019897 420.252411,596.419983 
	C424.715515,597.934937 429.375885,598.868713 434.630890,600.232666 
	C432.661072,590.920898 426.770203,586.739685 417.275360,586.554138 
	C407.434296,586.361694 400.006805,591.710083 397.910370,600.498291 
	C395.502197,610.593201 399.210297,618.694397 409.061737,623.715942 
M724.650940,625.016785 
	C728.314575,624.995605 731.990173,625.156921 735.639587,624.918213 
	C745.744873,624.257263 752.705627,617.295288 753.382019,607.388916 
	C754.081421,597.143677 748.518005,589.119324 738.442505,587.632263 
	C732.020813,586.684448 725.345459,587.454834 718.844116,587.454834 
	C718.844116,600.051941 718.844116,612.430115 718.844116,625.016724 
	C720.719055,625.016724 722.209900,625.016724 724.650940,625.016785 
M671.087524,604.003357 
	C669.856140,594.516663 664.613220,588.485474 655.373474,587.403137 
	C649.194092,586.679321 642.861267,587.265503 636.418945,587.265503 
	C636.418945,599.864563 636.418945,612.235718 636.418945,625.008667 
	C641.468994,625.008667 646.257874,625.060425 651.045349,624.998657 
	C663.819336,624.833923 670.961243,617.623352 671.087524,604.003357 
M617.717163,616.088501 
	C623.573914,604.581726 619.835693,592.633118 608.958618,588.093323 
	C597.856689,583.459778 585.159729,588.917419 581.676758,599.820190 
	C578.842773,608.691467 582.514526,618.023621 590.580383,622.449646 
	C599.733826,627.472473 610.393372,625.165161 617.717163,616.088501 
M994.224854,616.578430 
	C993.309082,619.225464 992.393372,621.872498 991.308411,625.008728 
	C993.503479,625.008728 995.290405,625.008728 997.077271,625.008728 
	C998.872498,625.008728 1000.667725,625.008728 1002.273926,625.008728 
	C1004.890686,618.294189 1007.240356,617.555664 1018.130493,619.606567 
	C1020.772949,625.867859 1021.276917,626.060913 1031.358276,624.438477 
	C1026.727295,611.875793 1022.126160,599.393921 1017.591187,587.091675 
	C1013.154785,587.091675 1009.345947,587.091675 1005.203430,587.091675 
	C1001.664490,596.672852 998.117065,606.276978 994.224854,616.578430 
M549.023438,622.618530 
	C549.574524,620.101868 550.658691,618.605591 553.719238,618.930481 
	C556.995544,619.278259 560.337280,619.008911 563.529846,619.008911 
	C566.753845,625.848999 567.211670,626.031982 577.119507,624.462219 
	C573.779236,615.409546 570.446533,606.419922 567.145020,597.418762 
	C563.086670,586.354065 563.097961,586.349915 550.881836,587.261658 
	C546.323242,599.610718 541.709961,612.107910 536.617981,625.901672 
	C541.406860,624.934814 545.096680,624.189819 549.023438,622.618530 
M845.697693,617.063660 
	C846.472839,615.203186 847.248047,613.342712 848.023193,611.482239 
	C847.723877,611.033997 847.424561,610.585815 847.125305,610.137634 
	C843.179871,611.135437 838.819153,611.401733 835.407104,613.338989 
	C832.062744,615.237854 829.225220,616.474487 825.731995,614.704041 
	C822.123596,612.875122 820.542175,607.506348 821.886353,602.273254 
	C822.853271,598.508850 825.038208,595.991333 829.133362,595.985779 
	C830.709229,595.983643 832.939697,596.203918 833.752319,597.219116 
	C837.839661,602.325195 842.962524,599.767395 847.976624,600.203491 
	C844.281372,588.809143 833.714111,583.800049 822.651123,587.677734 
	C815.044983,590.343750 810.744873,596.619812 810.554688,605.332947 
	C810.364441,614.045288 814.859863,621.110535 822.301514,623.795044 
	C830.714539,626.829895 839.383240,624.504517 845.697693,617.063660 
M784.024902,587.332642 
	C778.836304,589.218750 775.693787,592.546143 775.829956,598.434387 
	C775.966248,604.328186 779.936340,606.738892 784.651184,608.537842 
	C786.973511,609.423828 789.547729,609.870850 791.598694,611.165039 
	C792.863953,611.963501 793.358093,613.983948 794.198425,615.455811 
	C792.251709,615.704346 789.090454,616.815674 788.554932,616.061768 
	C785.010376,611.072083 780.334717,613.625854 776.037659,613.208679 
	C776.491028,621.223816 782.783752,625.550720 792.636169,624.976074 
	C799.712891,624.563293 804.587769,620.662354 805.489502,614.690796 
	C806.309082,609.262573 803.533020,605.687073 796.360474,602.844727 
	C793.594971,601.748779 790.736267,600.782837 788.195557,599.288940 
	C787.433289,598.840637 787.602173,596.808899 787.344482,595.502563 
	C788.583191,595.361145 790.581909,594.666443 790.943787,595.163391 
	C794.778687,600.431213 800.017639,596.973816 804.626221,598.151978 
	C803.760803,591.275208 800.836060,587.885437 794.688538,587.059937 
	C791.447266,586.624634 788.088806,587.061890 784.024902,587.332642 
M496.703796,590.935364 
	C491.214203,585.747131 484.715851,585.752869 478.048920,587.618591 
	C473.232391,588.966492 470.550842,592.479126 470.239227,597.470764 
	C469.931885,602.393311 472.585449,605.678528 476.894379,607.587219 
	C479.921570,608.928162 483.271484,609.610535 486.149780,611.185486 
	C487.418610,611.879761 487.874512,614.059753 488.699493,615.565186 
	C486.732849,615.774963 483.542267,616.837219 482.998169,616.056030 
	C479.463745,610.981812 474.729309,613.707825 470.498810,613.207397 
	C469.670349,620.922546 478.084137,625.522766 487.087433,624.983826 
	C493.855469,624.578674 499.022949,620.678650 499.944489,615.227844 
	C500.916504,609.478455 498.158630,605.751343 490.868103,602.859924 
	C488.100739,601.762390 485.273438,600.743103 482.689453,599.301147 
	C481.929840,598.877258 481.911194,597.125427 481.552979,595.982239 
	C482.871155,595.687927 485.055298,594.759033 485.375488,595.195984 
	C489.200775,600.416321 494.385590,596.981567 499.985168,598.454224 
	C498.739471,595.392151 497.956848,593.468445 496.703796,590.935364 
M1041.207031,607.360352 
	C1044.458984,608.592041 1047.860596,609.546814 1050.891602,611.187012 
	C1052.164551,611.875854 1052.653198,614.014404 1053.498413,615.493958 
	C1051.538940,615.735535 1048.362183,616.843384 1047.817505,616.078003 
	C1044.295898,611.130188 1039.561035,613.656250 1033.699341,612.995544 
	C1035.850586,616.540405 1036.824463,620.369019 1039.049072,621.343994 
	C1043.564331,623.322754 1048.768311,624.667358 1053.665894,624.601318 
	C1059.918213,624.517029 1064.198975,619.812622 1064.856445,614.419800 
	C1065.466553,609.415771 1062.644653,605.654785 1056.309082,603.069580 
	C1053.399292,601.882263 1050.356445,600.945435 1047.626709,599.437378 
	C1046.778687,598.968750 1046.761353,596.996704 1046.363647,595.712952 
	C1047.731689,595.538574 1049.953247,594.751526 1050.335815,595.284485 
	C1054.180786,600.641907 1059.329224,596.809937 1063.951538,598.197632 
	C1063.858521,596.800842 1063.928345,596.114624 1063.754028,595.497192 
	C1061.767822,588.460632 1054.357300,585.092834 1044.897827,586.985596 
	C1039.956299,587.974365 1036.248413,590.577820 1035.208374,595.767883 
	C1034.217407,600.713074 1036.058838,604.556946 1041.207031,607.360352 
M451.568634,615.508545 
	C451.568634,613.436279 451.568634,611.364014 451.568634,608.868835 
	C455.685638,608.868835 459.435089,608.868835 463.208252,608.868835 
	C463.208252,606.014771 463.208252,603.610413 463.208252,600.844360 
	C459.104797,600.844360 455.323792,600.844360 451.300537,600.844360 
	C451.402649,599.060974 451.482544,597.665588 451.584534,595.884155 
	C456.230164,595.884155 460.487244,595.884155 464.734192,595.884155 
	C464.734192,592.734558 464.734192,590.006653 464.734192,587.294067 
	C456.577179,587.294067 448.703308,587.294067 440.775391,587.294067 
	C440.775391,599.989563 440.775391,612.375305 440.775391,624.711426 
	C448.990601,624.711426 456.892334,624.711426 464.701416,624.711426 
	C464.701416,621.671448 464.701416,618.941528 464.701416,615.929932 
	C460.423126,615.929932 456.454773,615.929932 451.568634,615.508545 
M876.479431,625.005676 
	C878.227478,625.005676 879.975525,625.005676 881.937134,625.005676 
	C881.937134,622.340393 881.937134,620.364990 881.937134,618.389648 
	C881.937134,616.307678 881.937134,614.225708 881.937134,611.829773 
	C885.108093,611.829773 887.628723,612.116577 890.060730,611.774170 
	C896.523193,610.864441 900.720032,606.244507 900.983582,600.137573 
	C901.266174,593.590820 897.558655,588.280640 890.818176,587.509521 
	C884.346680,586.769165 877.724060,587.349609 871.301331,587.349609 
	C871.301331,600.042053 871.301331,612.413818 871.301331,625.005676 
	C872.916077,625.005676 874.224915,625.005676 876.479431,625.005676 
M690.794983,596.010010 
	C694.394104,596.010010 697.993286,596.010010 701.479370,596.010010 
	C701.479370,592.620239 701.479370,589.902466 701.479370,587.347046 
	C693.204590,587.347046 685.302917,587.347046 677.533081,587.347046 
	C677.533081,600.082214 677.533081,612.458069 677.533081,624.648071 
	C685.827820,624.648071 693.737061,624.648071 701.625488,624.648071 
	C701.625488,621.681396 701.625488,619.078674 701.625488,615.909851 
	C697.033630,615.909851 692.641052,615.909851 688.268433,615.909851 
	C688.268433,613.389954 688.268433,611.446960 688.268433,609.130127 
	C692.209656,609.130127 695.986450,609.130127 699.968689,609.130127 
	C699.968689,606.301514 699.968689,603.848938 699.968689,601.000916 
	C696.074951,601.000916 692.318115,601.000916 687.168152,601.000916 
	C688.358215,598.806458 689.113708,597.413330 690.794983,596.010010 
M528.519287,596.008850 
	C530.590210,596.008850 532.661133,596.008850 534.579163,596.008850 
	C534.579163,592.581909 534.579163,589.979736 534.579163,587.224609 
	C524.255493,587.224609 514.201721,587.224609 504.058929,587.224609 
	C504.058929,590.231140 504.058929,592.999268 504.058929,596.159912 
	C507.389771,596.159912 510.483551,596.159912 514.021118,596.159912 
	C514.021118,605.936523 514.021118,615.326721 514.021118,624.639038 
	C517.868896,624.639038 521.244019,624.639038 524.849060,624.639038 
	C524.849060,615.971680 524.874573,607.671875 524.830322,599.372437 
	C524.819885,597.406799 524.741089,595.576599 528.519287,596.008850 
M906.459534,615.433167 
	C906.459534,618.545715 906.459534,621.658264 906.459534,624.696167 
	C914.346436,624.696167 921.600220,624.696167 928.675415,624.696167 
	C928.675415,621.962769 928.675415,619.557983 928.675415,616.790771 
	C924.738098,616.790771 921.140869,616.790771 917.093506,616.790771 
	C917.093506,606.671021 917.093506,596.929749 917.093506,587.260742 
	C913.365234,587.260742 910.106262,587.260742 906.459656,587.260742 
	C906.459656,596.506165 906.459656,605.479370 906.459534,615.433167 
M770.328674,615.424438 
	C770.328674,606.020630 770.328674,596.616821 770.328674,587.219910 
	C766.429260,587.219910 763.163635,587.219910 759.712524,587.219910 
	C759.712524,599.855774 759.712524,612.254272 759.712524,624.676025 
	C763.340393,624.676025 766.710205,624.676025 770.328613,624.676025 
	C770.328613,621.690674 770.328613,619.043762 770.328674,615.424438 
M864.729248,614.459473 
	C864.729248,605.373291 864.729248,596.287048 864.729248,587.167297 
	C860.721863,587.167297 857.427429,587.167297 853.996338,587.167297 
	C853.996338,599.801331 853.996338,612.250916 853.996338,624.683655 
	C857.592468,624.683655 860.997375,624.683655 864.729248,624.683655 
	C864.729248,621.383667 864.729248,618.412598 864.729248,614.459473 
M944.726868,622.156555 
	C944.726868,610.545837 944.726868,598.935120 944.726868,587.319214 
	C940.770386,587.319214 937.396606,587.319214 934.156616,587.319214 
	C934.156616,600.044678 934.156616,612.431519 934.156616,625.016724 
	C936.322876,625.016724 938.193054,625.267029 939.958191,624.943726 
	C941.601379,624.642761 943.132690,623.730957 944.726868,622.156555 
M417.767731,656.456482 
	C414.102051,656.902405 409.964783,654.812378 405.443451,658.731384 
	C409.585968,658.966919 412.300293,659.121277 415.219177,659.287231 
	C414.845245,663.391357 412.858124,665.629089 409.053802,666.153259 
	C404.850830,666.732300 401.740021,664.928467 400.448608,661.026672 
	C399.130676,657.044739 399.254303,652.496216 403.307434,650.425232 
	C405.763031,649.170593 409.432709,649.884338 412.465302,650.333069 
	C414.063690,650.569580 415.465424,652.135010 416.955963,653.100464 
	C414.433136,646.449951 409.007050,644.459778 403.419647,646.882324 
	C398.114166,649.182617 395.475403,655.140503 397.138428,661.064209 
	C398.647614,666.440002 404.414124,669.977600 409.942261,668.919067 
	C415.427765,667.868713 418.840881,663.061890 417.767731,656.456482 
M867.808472,667.705688 
	C870.528503,669.212463 870.643982,669.221436 870.830139,666.828613 
	C870.995056,664.708252 870.864746,662.565002 870.864746,660.221924 
	C877.848572,659.112427 875.816895,669.926819 882.835083,668.788391 
	C881.068176,665.709595 879.518921,663.010132 877.819519,660.049133 
	C881.966858,657.828674 884.162720,654.537964 882.066040,650.200195 
	C878.991821,643.840088 873.065430,646.531128 867.775085,645.886719 
	C867.775085,653.235657 867.775085,660.028564 867.808472,667.705688 
M709.248962,666.355591 
	C714.712280,669.830383 719.377869,669.923584 723.442139,666.639404 
	C727.283447,663.535339 728.642700,657.414429 726.569519,652.555664 
	C724.668762,648.101074 720.053040,644.852661 715.419861,646.222473 
	C712.132690,647.194336 708.499329,649.672913 706.747314,652.535767 
	C704.075439,656.901672 705.109314,661.823181 709.248962,666.355591 
M627.410339,662.750122 
	C629.402588,655.883789 628.265564,651.081970 623.912964,647.980652 
	C619.068176,644.528564 612.388306,645.525757 608.809021,650.235229 
	C605.015564,655.226501 605.954651,663.108887 610.783752,666.810120 
	C616.040649,670.839294 622.528320,669.494263 627.410339,662.750122 
M834.816772,656.737610 
	C835.154053,664.412170 839.100830,668.931091 845.560669,669.038940 
	C851.533447,669.138672 856.150940,664.871094 856.807312,658.644714 
	C857.455383,652.495667 853.225281,646.858643 847.347656,646.038940 
	C841.105896,645.168396 836.416748,648.904236 834.816772,656.737610 
M551.140991,661.424316 
	C552.798462,654.105103 550.168274,648.479919 544.158142,646.489990 
	C538.675171,644.674622 532.922302,647.336670 530.658020,652.737000 
	C528.182800,658.640503 530.602112,665.455383 536.084106,668.021301 
	C541.781311,670.687988 547.233643,668.546509 551.140991,661.424316 
M683.202637,663.333313 
	C683.634399,662.262756 684.066162,661.192261 684.497986,660.121704 
	C685.569641,660.661255 686.946411,660.948669 687.646179,661.795532 
	C688.899170,663.311829 689.571289,665.307068 690.818970,666.829285 
	C691.705261,667.910767 693.138000,668.544373 694.326843,669.377869 
	C694.587036,669.037659 694.847229,668.697388 695.107422,668.357178 
	C693.553406,665.678345 691.999329,662.999451 690.473206,660.368713 
	C694.918640,656.708740 696.165955,653.533508 694.676941,650.073608 
	C693.032959,646.253479 688.491272,645.113342 680.106934,646.587280 
	C680.106934,653.285278 680.036682,660.063293 680.197754,666.835938 
	C680.217407,667.661377 681.479736,668.457336 682.166138,669.267029 
	C682.511536,669.057190 682.856873,668.847412 683.202271,668.637573 
	C683.202271,667.166809 683.202271,665.696045 683.202637,663.333313 
M596.136963,662.284546 
	C599.334412,650.295410 593.027710,644.634033 578.338989,646.388306 
	C578.338989,653.900391 578.338989,661.417603 578.338989,668.912903 
	C590.196106,669.309326 591.854980,668.740784 596.136963,662.284546 
M795.483582,646.709778 
	C793.695435,646.499756 791.472656,645.529297 790.215210,646.247925 
	C788.021057,647.501892 785.571960,649.493835 784.778503,651.726868 
	C783.687744,654.796509 786.042053,656.949829 789.074524,657.949402 
	C790.021667,658.261658 791.146301,658.322998 791.895325,658.888794 
	C793.459229,660.070129 795.001709,661.384094 796.136841,662.946106 
	C796.380798,663.281738 794.788391,665.809204 794.167542,665.759521 
	C792.095703,665.593384 790.060608,664.774475 788.052917,664.084839 
	C787.069519,663.747192 786.177734,663.142944 784.143982,662.089050 
	C785.709717,667.785339 788.707520,669.238159 792.739990,668.980347 
	C796.221069,668.757751 798.848633,667.168945 799.357361,663.410706 
	C799.927856,659.195557 797.230164,657.467529 793.712524,656.489868 
	C792.912659,656.267578 791.950928,656.230225 791.356628,655.747192 
	C790.045959,654.681885 788.687134,653.525635 787.850708,652.109619 
	C787.562500,651.621765 788.695129,649.485657 789.301514,649.429565 
	C791.134766,649.260010 793.087585,649.532043 794.878357,650.039368 
	C796.160889,650.402588 797.257996,651.420593 798.437805,652.146423 
	C798.768555,651.752991 799.099365,651.359558 799.430115,650.966125 
	C798.356812,649.651001 797.283447,648.335938 795.483582,646.709778 
M454.363586,656.259766 
	C456.480927,657.164307 458.730408,657.852905 460.673370,659.042358 
	C462.204071,659.979370 463.588165,661.390137 464.527222,662.906494 
	C464.786102,663.324463 463.251495,665.709473 462.480103,665.741272 
	C460.523041,665.821777 458.476501,665.245361 456.576233,664.604431 
	C455.482513,664.235474 454.603699,663.229431 452.701843,661.827271 
	C453.589294,667.858154 456.852753,669.018799 460.757446,668.974731 
	C464.519318,668.932312 467.251587,667.000427 467.712738,663.155090 
	C468.172089,659.324646 465.577484,657.508057 462.207977,656.596863 
	C461.408142,656.380554 460.487885,656.301453 459.854492,655.840881 
	C458.479248,654.840820 456.952942,653.816528 456.113708,652.425049 
	C455.776367,651.865723 456.975861,649.466370 457.658936,649.381836 
	C459.464813,649.158081 461.425018,649.553101 463.218170,650.069031 
	C464.459351,650.426147 465.525024,651.393188 467.612396,652.660217 
	C465.493225,646.585510 461.697906,644.764282 457.083313,646.468689 
	C452.993866,647.979004 452.064972,650.664429 454.363586,656.259766 
M812.022217,656.456116 
	C813.843445,657.231995 815.784302,657.813171 817.452271,658.838318 
	C819.126465,659.867432 820.707642,661.197571 821.915649,662.723450 
	C822.194214,663.075378 820.751099,665.690491 820.159729,665.668457 
	C818.072144,665.590637 815.984497,664.904114 813.949219,664.278137 
	C812.843689,663.938171 811.843933,663.254333 809.772827,662.208984 
	C811.616089,668.014282 815.009033,669.880066 819.019653,668.759155 
	C821.378357,668.099915 824.265442,665.542297 824.896179,663.276550 
	C826.214294,658.541504 822.009888,657.295776 818.456726,656.119568 
	C817.984314,655.963196 817.352905,656.034119 817.024109,655.742004 
	C815.744812,654.605103 814.334229,653.501160 813.467102,652.082581 
	C813.192200,651.632751 814.383545,649.488220 815.033386,649.423645 
	C816.863892,649.242004 818.823181,649.524048 820.612488,650.038208 
	C821.925781,650.415527 823.051025,651.447388 825.095642,652.699097 
	C823.098816,646.547852 819.087952,644.646118 814.362061,646.566895 
	C810.355713,648.195251 809.454651,651.117371 812.022217,656.456116 
M666.934753,647.251282 
	C663.005615,646.679932 659.076477,646.108643 655.002686,645.516296 
	C655.002686,653.956909 655.002686,661.333740 655.002686,668.947754 
	C655.875427,668.897888 657.026245,668.951965 657.049988,668.813110 
	C657.557617,665.848389 657.938782,662.862061 658.339783,659.914490 
	C669.652161,658.994568 672.546143,655.112000 666.934753,647.251282 
M505.135315,658.484741 
	C504.021149,661.852173 502.907013,665.219666 501.293488,670.096558 
	C505.896271,668.342041 506.328674,663.729858 511.175690,663.515198 
	C516.325684,663.287170 516.477905,669.124878 520.988770,668.980469 
	C518.500122,661.759216 516.260376,655.048096 513.820312,648.410645 
	C513.457214,647.422791 512.164368,646.176636 511.277313,646.157166 
	C510.455780,646.139160 509.248627,647.454773 508.827789,648.445007 
	C507.537109,651.482361 506.542450,654.645447 505.135315,658.484741 
M566.186829,574.787598 
	C565.106384,575.250916 564.060547,575.842896 562.936829,576.145264 
	C561.496399,576.532654 559.658386,577.367676 558.571045,576.832520 
	C550.903015,573.058838 547.187988,574.901184 545.404419,584.622070 
	C550.991211,582.216858 556.348755,582.285034 561.718994,583.863770 
	C562.358704,584.051880 563.299500,583.477295 564.016479,583.097290 
	C567.515686,581.242737 568.851196,577.287170 566.186829,574.787598 
M767.330811,645.944824 
	C765.389954,645.944824 763.449158,645.944824 761.367676,645.944824 
	C761.367676,653.881958 761.367676,661.269043 761.367676,668.656494 
	C765.477417,668.656494 769.301636,668.656494 773.125793,668.656494 
	C773.199585,668.103333 773.273376,667.550171 773.347229,666.997009 
	C770.430237,666.620728 767.513306,666.244385 764.412598,665.844360 
	C764.412598,663.626648 764.412598,661.550537 764.412598,659.284058 
	C767.092712,659.113342 769.627075,658.951904 772.161499,658.790466 
	C772.234802,658.242432 772.308105,657.694336 772.381409,657.146240 
	C769.683350,656.646362 766.985291,656.146545 764.537170,655.692993 
	C764.537170,653.270691 764.537170,651.194519 764.537170,649.176147 
	C767.706787,648.709961 770.549561,648.291870 773.392334,647.873779 
	C773.282715,647.230774 773.173035,646.587830 773.063354,645.944824 
	C771.449585,645.944824 769.835815,645.944824 767.330811,645.944824 
M436.337036,669.098328 
	C438.055237,669.098328 439.773438,669.098328 441.491638,669.098328 
	C441.571320,668.390564 441.650970,667.682800 441.730652,666.975037 
	C438.840454,666.571594 435.950226,666.168091 432.974670,665.752686 
	C432.974670,663.540833 432.974670,661.484436 432.974670,659.377869 
	C435.739136,659.134766 438.195312,658.918823 440.651489,658.702881 
	C440.676086,658.141235 440.700653,657.579590 440.725220,657.017944 
	C438.210724,656.594849 435.696228,656.171814 433.021851,655.721802 
	C433.021851,653.499023 433.021851,651.294312 433.021851,649.136169 
	C436.171661,648.786682 438.943604,648.479187 441.715546,648.171631 
	C441.641571,647.563049 441.567627,646.954468 441.493652,646.345886 
	C437.556244,646.345886 433.618805,646.345886 429.635254,646.345886 
	C429.635254,654.011536 429.635254,661.413147 429.635254,669.098328 
	C431.790283,669.098328 433.609467,669.098328 436.337036,669.098328 
M741.703308,660.651123 
	C744.350281,659.814636 746.997253,658.978210 749.644226,658.141724 
	C749.678589,657.759583 749.712891,657.377441 749.747253,656.995300 
	C747.201050,656.586914 744.654907,656.178528 742.058655,655.762146 
	C742.058655,653.435852 742.058655,651.238159 742.058655,649.644226 
	C744.979431,647.398743 749.126343,650.685608 751.617310,646.282959 
	C746.706665,646.282959 742.666382,646.282959 738.306702,646.282959 
	C738.306702,653.300537 738.248108,659.941406 738.380920,666.578491 
	C738.397522,667.409058 739.426025,668.219421 739.985657,669.039124 
	C740.537842,668.212830 741.424316,667.440857 741.569397,666.548401 
	C741.833313,664.924805 741.656982,663.229675 741.703308,660.651123 
M486.242249,660.382324 
	C486.242249,656.624390 486.242249,652.866455 486.242249,649.475037 
	C488.759674,648.702515 490.597137,648.138611 492.434631,647.574707 
	C492.301422,647.188904 492.168213,646.803040 492.035004,646.417236 
	C487.099823,646.417236 482.164642,646.417236 477.229492,646.417236 
	C477.137451,646.856201 477.045410,647.295105 476.953369,647.734070 
	C478.909760,648.255615 480.866150,648.777161 483.145874,649.384949 
	C483.145874,655.794189 483.145874,662.237671 483.145874,670.177124 
	C484.785706,668.647827 485.999298,668.058960 486.116608,667.300598 
	C486.417908,665.352295 486.232880,663.328918 486.242249,660.382324 
M509.782166,641.000305 
	C508.658234,642.008545 507.534271,643.016724 506.410309,644.024963 
	C506.727142,644.419067 507.043945,644.813171 507.360748,645.207336 
	C509.334015,641.647156 515.370911,648.513428 516.151001,641.794617 
	C514.067993,641.525208 512.286804,641.294861 509.782166,641.000305 
z"/>
<path fill="#F2EFF8" opacity="1.000000" stroke="none" 
	d="
M325.998840,667.081604 
	C292.504608,667.081604 259.509674,666.970703 226.516769,667.179077 
	C220.230927,667.218750 214.766342,666.123413 209.838516,662.054016 
	C206.327988,659.155029 202.411453,656.747742 197.678040,653.419128 
	C207.441940,647.809570 214.017700,639.439209 225.915741,640.366821 
	C237.160568,641.243591 248.527405,640.555176 260.730835,640.555176 
	C257.799377,635.037476 255.207382,630.158630 252.268326,624.626587 
	C251.004532,625.980103 249.869705,627.237976 248.689209,628.451416 
	C245.708847,631.514832 241.635498,631.840820 238.350845,629.305115 
	C227.708435,621.089294 221.536942,601.828674 225.551590,589.005432 
	C228.566895,579.374268 234.959534,572.198669 243.008362,566.534363 
	C246.322784,564.201904 246.401505,562.618042 244.077393,559.432739 
	C234.207932,545.906372 237.667206,528.083801 251.819748,518.954834 
	C253.926132,517.596130 254.521317,516.530212 254.167984,513.897156 
	C253.598190,509.651031 254.014893,505.272552 254.014893,500.569305 
	C250.431000,499.658325 246.860382,498.968781 243.465027,497.779022 
	C242.130905,497.311493 241.188843,495.725159 240.068207,494.648315 
	C241.276535,493.467712 242.317032,491.534058 243.718842,491.221680 
	C259.779755,487.642700 275.861145,484.128235 292.025940,481.065765 
	C295.259338,480.453217 298.929565,481.541473 302.290710,482.313995 
	C315.900604,485.441986 329.488770,488.672760 343.024231,492.105011 
	C344.587952,492.501526 346.841980,494.307831 346.946442,495.607574 
	C347.385468,501.069275 347.173645,506.587708 347.066254,512.082764 
	C347.054047,512.707336 346.198792,513.315430 345.734436,513.931152 
	C345.198975,513.939392 344.663513,513.947571 344.128021,513.955811 
	C343.718048,509.280487 343.308075,504.605164 342.845947,499.335266 
	C340.448517,499.741364 337.869659,499.691925 335.795746,500.690826 
	C334.270111,501.425659 332.667145,503.406616 332.387634,505.051331 
	C331.627106,509.526489 331.550964,514.117920 331.186005,518.893250 
	C333.459229,521.750732 336.551971,524.859985 338.722595,528.516602 
	C344.637665,538.480896 344.216583,548.677246 337.845490,558.197449 
	C335.201019,562.149109 334.700317,564.165344 339.022736,567.284546 
	C343.400879,570.443970 347.414093,574.530823 350.512695,578.962646 
	C359.890167,592.375122 358.970490,606.099792 350.322968,619.581726 
	C348.707672,622.100037 346.883026,624.496643 345.015472,626.838074 
	C340.528870,632.463135 336.367310,632.536316 331.395508,627.182922 
	C330.726776,626.462891 330.048706,625.751648 329.106079,624.750916 
	C326.257935,629.801270 323.535583,634.628601 320.385254,640.214783 
	C322.766968,640.354126 324.482758,640.537903 326.198914,640.541870 
	C340.362915,640.574707 354.528046,640.475586 368.690552,640.628845 
	C374.980896,640.696899 379.459839,644.066528 381.302948,649.442627 
	C383.164368,654.872131 381.997925,660.474121 377.123779,663.674866 
	C374.126678,665.643127 370.095154,666.831726 366.487762,666.932861 
	C353.167206,667.306519 339.829895,667.081543 325.998840,667.081604 
M312.737854,567.074158 
	C324.085602,567.201721 332.671356,562.007385 336.752808,552.545288 
	C340.771332,543.229126 338.462067,531.895630 330.983154,524.496338 
	C328.844666,522.380615 326.859039,521.188477 323.191193,521.844116 
	C303.071716,525.440125 282.884552,526.190552 262.774323,521.386169 
	C258.328918,520.324158 254.367706,521.257263 250.809219,524.442078 
	C241.810120,532.496094 239.847885,545.717773 246.309677,556.231262 
	C252.134415,565.708130 265.126129,569.684937 276.278778,565.475586 
	C280.116455,564.027100 282.718811,562.380005 281.941132,557.260498 
	C281.111450,551.798523 285.276031,547.664612 290.320404,547.669617 
	C295.772583,547.674927 300.376526,551.901062 299.374756,557.223206 
	C298.477173,561.992065 300.734436,563.618652 304.235718,564.873657 
	C306.716309,565.762695 309.314178,566.324585 312.737854,567.074158 
M249.268509,595.961670 
	C250.795532,606.678528 252.684448,617.281006 258.217010,626.711365 
	C260.162476,620.157227 261.305817,613.673462 263.971252,607.891418 
	C269.015320,596.949402 277.400238,589.402710 290.039673,589.132812 
	C302.747009,588.861572 311.410217,596.102905 316.567749,607.050171 
	C319.546570,613.372925 320.882660,620.469604 323.009186,627.384033 
	C332.310242,608.093872 334.200104,587.611206 331.458099,565.771729 
	C319.936829,572.873291 308.926361,572.861267 297.664093,565.903015 
	C296.630280,569.948303 296.092102,573.435242 294.787201,576.606689 
	C294.081940,578.320801 292.085541,580.585449 290.637726,580.610107 
	C289.169678,580.635071 287.016479,578.478027 286.307281,576.794678 
	C284.981171,573.647034 284.482056,570.150940 283.528625,566.361633 
	C272.272339,572.911743 261.200043,572.727478 249.182220,565.441467 
	C249.182220,575.931213 249.182220,585.489502 249.268509,595.961670 
M336.499756,644.136902 
	C328.738953,644.136902 320.978149,644.136902 313.311951,644.136902 
	C312.289062,653.288574 309.792664,656.686890 304.247040,657.051941 
	C297.614624,657.488586 295.757202,655.409729 292.941193,644.384888 
	C291.335449,644.384888 289.727112,644.384888 288.175537,644.384888 
	C285.882263,654.935120 283.754456,657.339417 277.124481,657.059753 
	C271.470306,656.821228 269.215881,653.796387 267.792542,644.495178 
	C253.413300,644.495178 239.028717,644.495178 224.593079,644.495178 
	C224.593079,650.737671 224.593079,656.608704 224.593079,662.415527 
	C269.178497,662.415527 313.353394,662.415527 357.361633,662.415527 
	C357.361633,656.101685 357.361633,650.204773 357.361633,644.136902 
	C350.476166,644.136902 343.987793,644.136902 336.499756,644.136902 
M317.307648,622.395630 
	C315.233398,616.666260 313.926239,610.494263 310.928223,605.297852 
	C304.303162,593.814697 291.128998,590.243469 279.860596,596.026672 
	C267.665436,602.285522 259.755981,622.849182 264.941681,636.924683 
	C266.501343,635.647400 268.224060,634.854187 268.960663,633.517578 
	C271.187134,629.477295 274.088867,627.059753 278.949493,627.789490 
	C284.066986,628.557861 286.804779,631.421997 287.558350,636.622009 
	C287.765076,638.048462 289.524170,639.250000 290.570923,640.554749 
	C291.626831,639.232910 293.295074,638.048828 293.628876,636.564636 
	C294.845581,631.155090 297.996185,627.902771 302.877167,627.737305 
	C307.865845,627.568176 311.206696,630.302795 312.882111,635.658936 
	C313.201508,636.679871 314.229279,637.479248 314.930237,638.380859 
	C315.690887,637.481506 317.038239,636.626770 317.110626,635.675110 
	C317.424133,631.552673 317.365173,627.401917 317.307648,622.395630 
M261.893646,491.264923 
	C257.776794,492.216705 253.659927,493.168457 249.543076,494.120209 
	C250.387772,495.372223 251.212494,495.799500 252.089096,496.000671 
	C260.826813,498.005859 269.665222,499.642548 278.291962,502.042145 
	C287.579163,504.625458 296.580780,505.669128 306.151794,503.014709 
	C316.777008,500.067932 327.704956,498.212708 339.374390,495.693756 
	C337.882812,494.981018 337.326233,494.585419 336.710510,494.439941 
	C323.605194,491.343140 310.514038,488.179932 297.364227,485.283600 
	C294.869080,484.734039 292.058716,484.869537 289.526978,485.366852 
	C280.561279,487.128174 271.653320,489.183228 261.893646,491.264923 
M326.790955,502.684143 
	C320.445557,503.982635 314.008423,504.946869 307.776276,506.657867 
	C298.414856,509.227997 289.316071,509.693451 279.901428,506.628448 
	C273.009827,504.384857 265.770538,503.209259 258.662231,501.552002 
	C256.195129,516.481323 258.167786,516.684387 268.529205,518.613403 
	C285.068176,521.692505 301.653778,521.006836 318.176575,518.630005 
	C327.546783,517.282043 330.086487,512.701904 326.790955,502.684143 
M244.767059,588.446960 
	C244.767059,582.603699 244.767059,576.760498 244.767059,570.471985 
	C225.276825,584.099243 222.879028,603.841797 237.851761,622.744629 
	C239.629898,624.989502 241.468887,628.653870 244.915985,626.113098 
	C247.868027,623.937195 250.999222,621.547913 249.709442,616.326477 
	C247.528183,607.496094 246.403183,598.404846 244.767059,588.446960 
M345.879791,619.312256 
	C359.834290,600.033936 351.727631,580.100159 336.619812,571.144287 
	C336.492706,571.614319 336.235840,572.060425 336.279694,572.474792 
	C337.881378,587.604553 336.107574,602.382935 331.467133,616.813904 
	C329.878174,621.755249 333.502136,623.976807 336.324310,626.130493 
	C339.606720,628.635376 341.223114,625.050049 343.039398,623.076599 
	C343.935913,622.102478 344.653503,620.963684 345.879791,619.312256 
M362.676636,644.274048 
	C362.213196,650.350769 361.749725,656.427490 361.262238,662.819580 
	C364.665161,662.819580 366.804565,662.880066 368.939362,662.807251 
	C373.760162,662.642822 377.293213,659.659851 378.037201,655.209717 
	C378.762054,650.873962 376.337463,646.418823 371.907349,645.064392 
	C369.284882,644.262634 366.370453,644.415894 362.676636,644.274048 
M275.267090,652.529175 
	C279.011627,653.992981 282.419983,653.074219 283.110199,649.164673 
	C283.898926,644.696960 283.696503,639.915283 283.023956,635.404358 
	C282.790466,633.838501 279.971344,631.811584 278.138214,631.587097 
	C276.545471,631.392029 273.389008,633.214355 273.153625,634.540955 
	C272.112854,640.405762 270.470154,646.546814 275.267090,652.529175 
M308.956390,647.831543 
	C308.966766,644.198853 309.209717,640.547424 308.919067,636.938965 
	C308.652557,633.629883 306.752747,631.249023 303.146301,631.425354 
	C299.682983,631.594543 297.795624,633.688232 297.787750,637.264648 
	C297.781189,640.238159 297.861755,643.214233 297.762421,646.184509 
	C297.652313,649.476685 298.453491,652.239136 302.052094,652.978577 
	C305.506439,653.688477 307.738495,651.982910 308.956390,647.831543 
M220.434357,654.466064 
	C220.434357,651.141663 220.434357,647.817261 220.434357,644.492859 
	C219.924927,644.316345 219.415482,644.139832 218.906052,643.963318 
	C214.336105,647.033264 209.766159,650.103149 204.335464,653.751282 
	C209.680023,657.283203 214.333359,660.358337 218.986710,663.433472 
	C219.469284,663.160095 219.951859,662.886780 220.434433,662.613464 
	C220.434433,660.214600 220.434433,657.815674 220.434357,654.466064 
M285.909821,559.012756 
	C287.262939,564.620605 288.616058,570.228516 289.969208,575.836365 
	C292.348328,570.316284 293.788635,564.785034 295.188629,559.243530 
	C296.056885,555.806885 295.690521,552.819946 291.582581,551.948120 
	C287.720886,551.128540 286.024261,553.064514 285.909821,559.012756 
z"/>
<path fill="#FDFCFE" opacity="1.000000" stroke="none" 
	d="
M986.937134,606.999146 
	C986.937134,613.133606 986.937134,618.768555 986.937134,624.339539 
	C977.079102,626.247375 976.742065,626.109131 971.671265,618.491882 
	C968.907043,614.339539 966.126648,610.197876 963.339417,606.060913 
	C963.177429,605.820435 962.888855,605.665283 962.123291,605.015625 
	C962.123291,611.783020 962.123291,618.115662 962.123291,624.720459 
	C958.217163,624.720459 954.830811,624.720459 951.216553,624.720459 
	C951.216553,612.205139 951.216553,599.810181 951.216553,587.469421 
	C958.270935,585.599548 963.372375,587.126587 966.693848,594.082520 
	C968.876465,598.653320 972.211121,602.674011 975.702393,607.959167 
	C975.702393,600.438660 975.702393,594.081482 975.702393,587.359863 
	C979.507874,587.359863 982.897278,587.359863 986.937134,587.359863 
	C986.937134,593.643188 986.937134,600.071472 986.937134,606.999146 
z"/>
<path fill="#FBF9FD" opacity="1.000000" stroke="none" 
	d="
M408.715210,623.531555 
	C399.210297,618.694397 395.502197,610.593201 397.910370,600.498291 
	C400.006805,591.710083 407.434296,586.361694 417.275360,586.554138 
	C426.770203,586.739685 432.661072,590.920898 434.630890,600.232666 
	C429.375885,598.868713 424.715515,597.934937 420.252411,596.419983 
	C416.127533,595.019897 411.469727,596.321106 409.399658,600.084412 
	C406.879578,604.665833 408.159515,611.588745 411.993866,614.115967 
	C416.427460,617.038208 421.654236,616.107422 425.512299,611.185059 
	C421.936310,611.185059 418.777344,611.185059 415.395721,611.185059 
	C415.395721,608.307007 415.395721,606.031006 415.395721,603.370667 
	C421.697235,603.370667 428.110779,603.370667 434.568085,603.370667 
	C437.533661,617.270874 427.427521,627.354858 412.929596,624.719849 
	C411.622650,624.482300 410.350189,624.055115 408.715210,623.531555 
z"/>
<path fill="#F8F6FB" opacity="1.000000" stroke="none" 
	d="
M724.175842,625.016724 
	C722.209900,625.016724 720.719055,625.016724 718.844116,625.016724 
	C718.844116,612.430115 718.844116,600.051941 718.844116,587.454834 
	C725.345459,587.454834 732.020813,586.684448 738.442505,587.632263 
	C748.518005,589.119324 754.081421,597.143677 753.382019,607.388916 
	C752.705627,617.295288 745.744873,624.257263 735.639587,624.918213 
	C731.990173,625.156921 728.314575,624.995605 724.175842,625.016724 
M742.571655,604.848877 
	C740.874451,597.541565 737.031494,595.176331 729.645264,596.906616 
	C729.645264,603.114563 729.645264,609.320251 729.645264,615.482971 
	C738.580566,616.239624 741.650085,613.835815 742.571655,604.848877 
z"/>
<path fill="#FBF9FD" opacity="1.000000" stroke="none" 
	d="
M671.104492,604.399170 
	C670.961243,617.623352 663.819336,624.833923 651.045349,624.998657 
	C646.257874,625.060425 641.468994,625.008667 636.418945,625.008667 
	C636.418945,612.235718 636.418945,599.864563 636.418945,587.265503 
	C642.861267,587.265503 649.194092,586.679321 655.373474,587.403137 
	C664.613220,588.485474 669.856140,594.516663 671.104492,604.399170 
M647.064209,607.446716 
	C647.064209,610.174072 647.064209,612.901428 647.064209,615.654968 
	C652.283386,615.959717 657.229004,615.936951 658.857422,611.203918 
	C660.006531,607.864136 659.821777,603.248291 658.377502,600.036255 
	C656.494629,595.848877 651.757629,595.969666 647.064209,596.394165 
	C647.064209,599.932617 647.064209,603.206116 647.064209,607.446716 
z"/>
<path fill="#FBF9FD" opacity="1.000000" stroke="none" 
	d="
M617.493713,616.380493 
	C610.393372,625.165161 599.733826,627.472473 590.580383,622.449646 
	C582.514526,618.023621 578.842773,608.691467 581.676758,599.820190 
	C585.159729,588.917419 597.856689,583.459778 608.958618,588.093323 
	C619.835693,592.633118 623.573914,604.581726 617.493713,616.380493 
M609.310059,602.395996 
	C607.006165,596.724304 602.972046,594.594666 597.601135,596.214783 
	C592.988892,597.606079 590.643311,602.800598 592.034912,608.541321 
	C593.134399,613.077148 597.440430,615.715637 602.391663,614.887451 
	C607.565613,614.022034 609.987122,610.047729 609.310059,602.395996 
z"/>
<path fill="#FBFAFD" opacity="1.000000" stroke="none" 
	d="
M994.397278,616.229736 
	C998.117065,606.276978 1001.664490,596.672852 1005.203430,587.091675 
	C1009.345947,587.091675 1013.154785,587.091675 1017.591187,587.091675 
	C1022.126160,599.393921 1026.727295,611.875793 1031.358276,624.438477 
	C1021.276917,626.060913 1020.772949,625.867859 1018.130493,619.606567 
	C1007.240356,617.555664 1004.890686,618.294189 1002.273926,625.008728 
	C1000.667725,625.008728 998.872498,625.008728 997.077271,625.008728 
	C995.290405,625.008728 993.503479,625.008728 991.308411,625.008728 
	C992.393372,621.872498 993.309082,619.225464 994.397278,616.229736 
M1007.899231,610.691956 
	C1010.253235,610.691956 1012.607300,610.691956 1015.383972,610.691956 
	C1014.060852,606.724609 1012.882690,603.191711 1011.332092,598.542175 
	C1009.923706,602.989868 1008.841248,606.408325 1007.899231,610.691956 
z"/>
<path fill="#FBFAFD" opacity="1.000000" stroke="none" 
	d="
M548.905029,623.031677 
	C545.096680,624.189819 541.406860,624.934814 536.617981,625.901672 
	C541.709961,612.107910 546.323242,599.610718 550.881836,587.261658 
	C563.097961,586.349915 563.086670,586.354065 567.145020,597.418762 
	C570.446533,606.419922 573.779236,615.409546 577.119507,624.462219 
	C567.211670,626.031982 566.753845,625.848999 563.529846,619.008911 
	C560.337280,619.008911 556.995544,619.278259 553.719238,618.930481 
	C550.658691,618.605591 549.574524,620.101868 548.905029,623.031677 
M555.268433,603.840454 
	C554.599060,606.117920 553.929749,608.395447 553.230835,610.773499 
	C556.032043,610.773499 558.430847,610.773499 561.184509,610.773499 
	C559.906372,606.989136 558.742004,603.541687 557.214417,599.018677 
	C556.387451,601.121948 555.988953,602.135376 555.268433,603.840454 
z"/>
<path fill="#FBF9FD" opacity="1.000000" stroke="none" 
	d="
M845.468506,617.352783 
	C839.383240,624.504517 830.714539,626.829895 822.301514,623.795044 
	C814.859863,621.110535 810.364441,614.045288 810.554688,605.332947 
	C810.744873,596.619812 815.044983,590.343750 822.651123,587.677734 
	C833.714111,583.800049 844.281372,588.809143 847.976624,600.203491 
	C842.962524,599.767395 837.839661,602.325195 833.752319,597.219116 
	C832.939697,596.203918 830.709229,595.983643 829.133362,595.985779 
	C825.038208,595.991333 822.853271,598.508850 821.886353,602.273254 
	C820.542175,607.506348 822.123596,612.875122 825.731995,614.704041 
	C829.225220,616.474487 832.062744,615.237854 835.407104,613.338989 
	C838.819153,611.401733 843.179871,611.135437 847.125305,610.137634 
	C847.424561,610.585815 847.723877,611.033997 848.023193,611.482239 
	C847.248047,613.342712 846.472839,615.203186 845.468506,617.352783 
z"/>
<path fill="#F9F8FC" opacity="1.000000" stroke="none" 
	d="
M784.404053,587.218933 
	C788.088806,587.061890 791.447266,586.624634 794.688538,587.059937 
	C800.836060,587.885437 803.760803,591.275208 804.626221,598.151978 
	C800.017639,596.973816 794.778687,600.431213 790.943787,595.163391 
	C790.581909,594.666443 788.583191,595.361145 787.344482,595.502563 
	C787.602173,596.808899 787.433289,598.840637 788.195557,599.288940 
	C790.736267,600.782837 793.594971,601.748779 796.360474,602.844727 
	C803.533020,605.687073 806.309082,609.262573 805.489502,614.690796 
	C804.587769,620.662354 799.712891,624.563293 792.636169,624.976074 
	C782.783752,625.550720 776.491028,621.223816 776.037659,613.208679 
	C780.334717,613.625854 785.010376,611.072083 788.554932,616.061768 
	C789.090454,616.815674 792.251709,615.704346 794.198425,615.455811 
	C793.358093,613.983948 792.863953,611.963501 791.598694,611.165039 
	C789.547729,609.870850 786.973511,609.423828 784.651184,608.537842 
	C779.936340,606.738892 775.966248,604.328186 775.829956,598.434387 
	C775.693787,592.546143 778.836304,589.218750 784.404053,587.218933 
z"/>
<path fill="#FBF9FD" opacity="1.000000" stroke="none" 
	d="
M496.939026,591.239990 
	C497.956848,593.468445 498.739471,595.392151 499.985168,598.454224 
	C494.385590,596.981567 489.200775,600.416321 485.375488,595.195984 
	C485.055298,594.759033 482.871155,595.687927 481.552979,595.982178 
	C481.911194,597.125427 481.929840,598.877258 482.689453,599.301147 
	C485.273438,600.743103 488.100739,601.762390 490.868103,602.859924 
	C498.158630,605.751343 500.916504,609.478455 499.944489,615.227844 
	C499.022949,620.678650 493.855469,624.578674 487.087433,624.983826 
	C478.084137,625.522766 469.670349,620.922546 470.498810,613.207397 
	C474.729309,613.707825 479.463745,610.981812 482.998169,616.056030 
	C483.542267,616.837219 486.732849,615.774963 488.699493,615.565186 
	C487.874512,614.059753 487.418610,611.879761 486.149780,611.185486 
	C483.271484,609.610535 479.921570,608.928162 476.894379,607.587219 
	C472.585449,605.678528 469.931885,602.393311 470.239227,597.470764 
	C470.550842,592.479126 473.232391,588.966492 478.048920,587.618591 
	C484.715851,585.752869 491.214203,585.747131 496.939026,591.239990 
z"/>
<path fill="#F9F8FC" opacity="1.000000" stroke="none" 
	d="
M1040.871094,607.198730 
	C1036.058838,604.556946 1034.217407,600.713074 1035.208374,595.767883 
	C1036.248413,590.577820 1039.956299,587.974365 1044.897827,586.985596 
	C1054.357300,585.092834 1061.767822,588.460632 1063.754028,595.497192 
	C1063.928345,596.114624 1063.858521,596.800842 1063.951538,598.197632 
	C1059.329224,596.809937 1054.180786,600.641907 1050.335815,595.284485 
	C1049.953247,594.751526 1047.731689,595.538574 1046.363647,595.712952 
	C1046.761353,596.996704 1046.778687,598.968750 1047.626709,599.437378 
	C1050.356445,600.945435 1053.399292,601.882263 1056.309082,603.069580 
	C1062.644653,605.654785 1065.466553,609.415771 1064.856445,614.419800 
	C1064.198975,619.812622 1059.918213,624.517029 1053.665894,624.601318 
	C1048.768311,624.667358 1043.564331,623.322754 1039.049072,621.343994 
	C1036.824463,620.369019 1035.850586,616.540405 1033.699341,612.995544 
	C1039.561035,613.656250 1044.295898,611.130188 1047.817505,616.078003 
	C1048.362183,616.843384 1051.538940,615.735535 1053.498413,615.493958 
	C1052.653198,614.014404 1052.164551,611.875854 1050.891602,611.187012 
	C1047.860596,609.546814 1044.458984,608.592041 1040.871094,607.198730 
z"/>
<path fill="#F9F8FC" opacity="1.000000" stroke="none" 
	d="
M452.027527,615.719238 
	C456.454773,615.929932 460.423126,615.929932 464.701416,615.929932 
	C464.701416,618.941528 464.701416,621.671448 464.701416,624.711426 
	C456.892334,624.711426 448.990601,624.711426 440.775391,624.711426 
	C440.775391,612.375305 440.775391,599.989563 440.775391,587.294067 
	C448.703308,587.294067 456.577179,587.294067 464.734192,587.294067 
	C464.734192,590.006653 464.734192,592.734558 464.734192,595.884155 
	C460.487244,595.884155 456.230164,595.884155 451.584534,595.884155 
	C451.482544,597.665588 451.402649,599.060974 451.300537,600.844360 
	C455.323792,600.844360 459.104797,600.844360 463.208252,600.844360 
	C463.208252,603.610413 463.208252,606.014771 463.208252,608.868835 
	C459.435089,608.868835 455.685638,608.868835 451.568634,608.868835 
	C451.568634,611.364014 451.568634,613.436279 452.027527,615.719238 
z"/>
<path fill="#FDFCFE" opacity="1.000000" stroke="none" 
	d="
M876.006592,625.005676 
	C874.224915,625.005676 872.916077,625.005676 871.301331,625.005676 
	C871.301331,612.413818 871.301331,600.042053 871.301331,587.349609 
	C877.724060,587.349609 884.346680,586.769165 890.818176,587.509521 
	C897.558655,588.280640 901.266174,593.590820 900.983582,600.137573 
	C900.720032,606.244507 896.523193,610.864441 890.060730,611.774170 
	C887.628723,612.116577 885.108093,611.829773 881.937134,611.829773 
	C881.937134,614.225708 881.937134,616.307678 881.937134,618.389648 
	C881.937134,620.364990 881.937134,622.340393 881.937134,625.005676 
	C879.975525,625.005676 878.227478,625.005676 876.006592,625.005676 
M882.594116,602.907471 
	C883.419434,602.940308 884.421021,603.289246 885.036621,602.945984 
	C886.789734,601.968445 888.385498,600.708984 890.043213,599.560425 
	C888.421509,598.371704 886.878601,597.043274 885.140076,596.061401 
	C884.422058,595.656006 883.284058,595.994202 882.008484,595.994202 
	C882.008484,598.328186 882.008484,600.271118 882.594116,602.907471 
z"/>
<path fill="#FBFAFD" opacity="1.000000" stroke="none" 
	d="
M690.332092,596.015137 
	C689.113708,597.413330 688.358215,598.806458 687.168152,601.000916 
	C692.318115,601.000916 696.074951,601.000916 699.968689,601.000916 
	C699.968689,603.848938 699.968689,606.301514 699.968689,609.130127 
	C695.986450,609.130127 692.209656,609.130127 688.268433,609.130127 
	C688.268433,611.446960 688.268433,613.389954 688.268433,615.909851 
	C692.641052,615.909851 697.033630,615.909851 701.625488,615.909851 
	C701.625488,619.078674 701.625488,621.681396 701.625488,624.648071 
	C693.737061,624.648071 685.827820,624.648071 677.533081,624.648071 
	C677.533081,612.458069 677.533081,600.082214 677.533081,587.347046 
	C685.302917,587.347046 693.204590,587.347046 701.479370,587.347046 
	C701.479370,589.902466 701.479370,592.620239 701.479370,596.010010 
	C697.993286,596.010010 694.394104,596.010010 690.332092,596.015137 
z"/>
<path fill="#FBFAFD" opacity="1.000000" stroke="none" 
	d="
M528.044128,596.009399 
	C524.741089,595.576599 524.819885,597.406799 524.830322,599.372437 
	C524.874573,607.671875 524.849060,615.971680 524.849060,624.639038 
	C521.244019,624.639038 517.868896,624.639038 514.021118,624.639038 
	C514.021118,615.326721 514.021118,605.936523 514.021118,596.159912 
	C510.483551,596.159912 507.389771,596.159912 504.058929,596.159912 
	C504.058929,592.999268 504.058929,590.231140 504.058929,587.224609 
	C514.201721,587.224609 524.255493,587.224609 534.579163,587.224609 
	C534.579163,589.979736 534.579163,592.581909 534.579163,596.008850 
	C532.661133,596.008850 530.590210,596.008850 528.044128,596.009399 
z"/>
<path fill="#F8F6FB" opacity="1.000000" stroke="none" 
	d="
M906.459595,614.942871 
	C906.459656,605.479370 906.459656,596.506165 906.459656,587.260742 
	C910.106262,587.260742 913.365234,587.260742 917.093506,587.260742 
	C917.093506,596.929749 917.093506,606.671021 917.093506,616.790771 
	C921.140869,616.790771 924.738098,616.790771 928.675415,616.790771 
	C928.675415,619.557983 928.675415,621.962769 928.675415,624.696167 
	C921.600220,624.696167 914.346436,624.696167 906.459534,624.696167 
	C906.459534,621.658264 906.459534,618.545715 906.459595,614.942871 
z"/>
<path fill="#F8F6FB" opacity="1.000000" stroke="none" 
	d="
M770.328613,615.910645 
	C770.328613,619.043762 770.328613,621.690674 770.328613,624.676025 
	C766.710205,624.676025 763.340393,624.676025 759.712524,624.676025 
	C759.712524,612.254272 759.712524,599.855774 759.712524,587.219910 
	C763.163635,587.219910 766.429260,587.219910 770.328674,587.219910 
	C770.328674,596.616821 770.328674,606.020630 770.328613,615.910645 
z"/>
<path fill="#F8F6FB" opacity="1.000000" stroke="none" 
	d="
M864.729248,614.950500 
	C864.729248,618.412598 864.729248,621.383667 864.729248,624.683655 
	C860.997375,624.683655 857.592468,624.683655 853.996338,624.683655 
	C853.996338,612.250916 853.996338,599.801331 853.996338,587.167297 
	C857.427429,587.167297 860.721863,587.167297 864.729248,587.167297 
	C864.729248,596.287048 864.729248,605.373291 864.729248,614.950500 
z"/>
<path fill="#F8F6FB" opacity="1.000000" stroke="none" 
	d="
M944.720093,622.622314 
	C943.132690,623.730957 941.601379,624.642761 939.958191,624.943726 
	C938.193054,625.267029 936.322876,625.016724 934.156616,625.016724 
	C934.156616,612.431519 934.156616,600.044678 934.156616,587.319214 
	C937.396606,587.319214 940.770386,587.319214 944.726868,587.319214 
	C944.726868,598.935120 944.726868,610.545837 944.720093,622.622314 
z"/>
<path fill="#E8E3F2" opacity="1.000000" stroke="none" 
	d="
M418.137085,656.657104 
	C418.840881,663.061890 415.427765,667.868713 409.942261,668.919067 
	C404.414124,669.977600 398.647614,666.440002 397.138428,661.064209 
	C395.475403,655.140503 398.114166,649.182617 403.419647,646.882324 
	C409.007050,644.459778 414.433136,646.449951 416.955963,653.100464 
	C415.465424,652.135010 414.063690,650.569580 412.465302,650.333069 
	C409.432709,649.884338 405.763031,649.170593 403.307434,650.425232 
	C399.254303,652.496216 399.130676,657.044739 400.448608,661.026672 
	C401.740021,664.928467 404.850830,666.732300 409.053802,666.153259 
	C412.858124,665.629089 414.845245,663.391357 415.219177,659.287231 
	C412.300293,659.121277 409.585968,658.966919 405.443451,658.731384 
	C409.964783,654.812378 414.102051,656.902405 418.137085,656.657104 
z"/>
<path fill="#ECE7F4" opacity="1.000000" stroke="none" 
	d="
M867.791748,667.263550 
	C867.775085,660.028564 867.775085,653.235657 867.775085,645.886719 
	C873.065430,646.531128 878.991821,643.840088 882.066040,650.200195 
	C884.162720,654.537964 881.966858,657.828674 877.819519,660.049133 
	C879.518921,663.010132 881.068176,665.709595 882.835083,668.788391 
	C875.816895,669.926819 877.848572,659.112427 870.864746,660.221924 
	C870.864746,662.565002 870.995056,664.708252 870.830139,666.828613 
	C870.643982,669.221436 870.528503,669.212463 867.791748,667.263550 
M870.853821,652.525757 
	C870.853821,654.071106 870.853821,655.616516 870.853821,657.411682 
	C873.297485,657.277588 875.255249,657.715210 876.475647,656.960449 
	C877.893738,656.083557 879.835571,653.667419 879.468506,652.797729 
	C878.754150,651.105103 876.779907,649.504639 874.969543,648.838013 
	C873.169128,648.175049 870.419495,647.967407 870.853821,652.525757 
z"/>
<path fill="#E8E3F2" opacity="1.000000" stroke="none" 
	d="
M708.972778,666.098450 
	C705.109314,661.823181 704.075439,656.901672 706.747314,652.535767 
	C708.499329,649.672913 712.132690,647.194336 715.419861,646.222473 
	C720.053040,644.852661 724.668762,648.101074 726.569519,652.555664 
	C728.642700,657.414429 727.283447,663.535339 723.442139,666.639404 
	C719.377869,669.923584 714.712280,669.830383 708.972778,666.098450 
M723.699402,653.374146 
	C720.431030,648.858337 716.568054,647.515747 712.780457,649.579285 
	C709.262878,651.495667 707.617126,656.597961 709.101501,660.985535 
	C710.392029,664.800171 714.117798,666.901245 718.183838,666.107483 
	C722.904846,665.185730 724.902710,661.046692 723.699402,653.374146 
z"/>
<path fill="#E8E3F2" opacity="1.000000" stroke="none" 
	d="
M627.246338,663.090576 
	C622.528320,669.494263 616.040649,670.839294 610.783752,666.810120 
	C605.954651,663.108887 605.015564,655.226501 608.809021,650.235229 
	C612.388306,645.525757 619.068176,644.528564 623.912964,647.980652 
	C628.265564,651.081970 629.402588,655.883789 627.246338,663.090576 
M621.415771,665.288452 
	C625.518494,662.547119 626.353027,658.403748 624.757874,654.329529 
	C623.885803,652.102051 621.162903,649.488342 618.976501,649.182800 
	C616.544678,648.842957 612.228333,650.299377 611.493408,652.100403 
	C610.221069,655.218567 610.128784,659.547302 611.281006,662.740662 
	C612.713684,666.711182 616.880615,666.823059 621.415771,665.288452 
z"/>
<path fill="#ECE7F4" opacity="1.000000" stroke="none" 
	d="
M834.841309,656.360352 
	C836.416748,648.904236 841.105896,645.168396 847.347656,646.038940 
	C853.225281,646.858643 857.455383,652.495667 856.807312,658.644714 
	C856.150940,664.871094 851.533447,669.138672 845.560669,669.038940 
	C839.100830,668.931091 835.154053,664.412170 834.841309,656.360352 
M841.661804,649.804504 
	C837.558533,652.616577 836.892517,656.840393 838.490356,660.866333 
	C839.366455,663.073792 842.239563,665.608521 844.456787,665.862793 
	C846.887329,666.141479 850.321533,664.610901 852.024902,662.709778 
	C854.788879,659.624878 854.412537,655.553040 852.088440,652.026978 
	C849.675781,648.366577 846.153076,648.176697 841.661804,649.804504 
z"/>
<path fill="#ECE7F4" opacity="1.000000" stroke="none" 
	d="
M551.044678,661.803772 
	C547.233643,668.546509 541.781311,670.687988 536.084106,668.021301 
	C530.602112,665.455383 528.182800,658.640503 530.658020,652.737000 
	C532.922302,647.336670 538.675171,644.674622 544.158142,646.489990 
	C550.168274,648.479919 552.798462,654.105103 551.044678,661.803772 
M539.723206,666.224854 
	C545.925842,665.855469 549.338013,662.179199 548.736755,656.513733 
	C548.171997,651.191223 544.010315,647.411194 539.324097,649.093323 
	C536.761597,650.013123 534.021240,653.033630 533.208374,655.675232 
	C531.658081,660.713379 533.854248,663.795898 539.723206,666.224854 
z"/>
<path fill="#ECE7F4" opacity="1.000000" stroke="none" 
	d="
M683.202454,663.779297 
	C683.202271,665.696045 683.202271,667.166809 683.202271,668.637573 
	C682.856873,668.847412 682.511536,669.057190 682.166138,669.267029 
	C681.479736,668.457336 680.217407,667.661377 680.197754,666.835938 
	C680.036682,660.063293 680.106934,653.285278 680.106934,646.587280 
	C688.491272,645.113342 693.032959,646.253479 694.676941,650.073608 
	C696.165955,653.533508 694.918640,656.708740 690.473206,660.368713 
	C691.999329,662.999451 693.553406,665.678345 695.107422,668.357178 
	C694.847229,668.697388 694.587036,669.037659 694.326843,669.377869 
	C693.138000,668.544373 691.705261,667.910767 690.818970,666.829285 
	C689.571289,665.307068 688.899170,663.311829 687.646179,661.795532 
	C686.946411,660.948669 685.569641,660.661255 684.497986,660.121704 
	C684.066162,661.192261 683.634399,662.262756 683.202454,663.779297 
M684.620239,648.720276 
	C683.967712,651.347534 683.315186,653.974731 682.457520,657.427795 
	C685.771240,657.179016 688.210144,657.626343 689.819580,656.673096 
	C691.078918,655.927307 692.283997,652.335388 691.824524,651.932068 
	C690.096313,650.415283 687.676697,649.686279 684.620239,648.720276 
z"/>
<path fill="#F2EFF8" opacity="1.000000" stroke="none" 
	d="
M596.016846,662.659424 
	C591.854980,668.740784 590.196106,669.309326 578.338989,668.912903 
	C578.338989,661.417603 578.338989,653.900391 578.338989,646.388306 
	C593.027710,644.634033 599.334412,650.295410 596.016846,662.659424 
M586.960144,648.846741 
	C585.055908,648.846741 583.151611,648.846741 581.248535,648.846741 
	C581.248535,654.904480 581.248535,660.500122 581.248535,666.070740 
	C589.234680,666.719788 592.618408,665.031982 593.769104,659.964050 
	C594.899841,654.984253 592.850952,651.195923 586.960144,648.846741 
z"/>
<path fill="#E8E3F2" opacity="1.000000" stroke="none" 
	d="
M795.846863,646.865295 
	C797.283447,648.335938 798.356812,649.651001 799.430115,650.966125 
	C799.099365,651.359558 798.768555,651.752991 798.437805,652.146423 
	C797.257996,651.420593 796.160889,650.402588 794.878357,650.039368 
	C793.087585,649.532043 791.134766,649.260010 789.301514,649.429565 
	C788.695129,649.485657 787.562500,651.621765 787.850708,652.109619 
	C788.687134,653.525635 790.045959,654.681885 791.356628,655.747192 
	C791.950928,656.230225 792.912659,656.267578 793.712524,656.489868 
	C797.230164,657.467529 799.927856,659.195557 799.357361,663.410706 
	C798.848633,667.168945 796.221069,668.757751 792.739990,668.980347 
	C788.707520,669.238159 785.709717,667.785339 784.143982,662.089050 
	C786.177734,663.142944 787.069519,663.747192 788.052917,664.084839 
	C790.060608,664.774475 792.095703,665.593384 794.167542,665.759521 
	C794.788391,665.809204 796.380798,663.281738 796.136841,662.946106 
	C795.001709,661.384094 793.459229,660.070129 791.895325,658.888794 
	C791.146301,658.322998 790.021667,658.261658 789.074524,657.949402 
	C786.042053,656.949829 783.687744,654.796509 784.778503,651.726868 
	C785.571960,649.493835 788.021057,647.501892 790.215210,646.247925 
	C791.472656,645.529297 793.695435,646.499756 795.846863,646.865295 
z"/>
<path fill="#ECE7F4" opacity="1.000000" stroke="none" 
	d="
M454.121674,655.994751 
	C452.064972,650.664429 452.993866,647.979004 457.083313,646.468689 
	C461.697906,644.764282 465.493225,646.585510 467.612396,652.660217 
	C465.525024,651.393188 464.459351,650.426147 463.218170,650.069031 
	C461.425018,649.553101 459.464813,649.158081 457.658936,649.381836 
	C456.975861,649.466370 455.776367,651.865723 456.113708,652.425049 
	C456.952942,653.816528 458.479248,654.840820 459.854492,655.840881 
	C460.487885,656.301453 461.408142,656.380554 462.207977,656.596863 
	C465.577484,657.508057 468.172089,659.324646 467.712738,663.155090 
	C467.251587,667.000427 464.519318,668.932312 460.757446,668.974731 
	C456.852753,669.018799 453.589294,667.858154 452.701843,661.827271 
	C454.603699,663.229431 455.482513,664.235474 456.576233,664.604431 
	C458.476501,665.245361 460.523041,665.821777 462.480103,665.741272 
	C463.251495,665.709473 464.786102,663.324463 464.527222,662.906494 
	C463.588165,661.390137 462.204071,659.979370 460.673370,659.042358 
	C458.730408,657.852905 456.480927,657.164307 454.121674,655.994751 
z"/>
<path fill="#E8E3F2" opacity="1.000000" stroke="none" 
	d="
M811.749878,656.188721 
	C809.454651,651.117371 810.355713,648.195251 814.362061,646.566895 
	C819.087952,644.646118 823.098816,646.547852 825.095642,652.699097 
	C823.051025,651.447388 821.925781,650.415527 820.612488,650.038208 
	C818.823181,649.524048 816.863892,649.242004 815.033386,649.423645 
	C814.383545,649.488220 813.192200,651.632751 813.467102,652.082581 
	C814.334229,653.501160 815.744812,654.605103 817.024109,655.742004 
	C817.352905,656.034119 817.984314,655.963196 818.456726,656.119568 
	C822.009888,657.295776 826.214294,658.541504 824.896179,663.276550 
	C824.265442,665.542297 821.378357,668.099915 819.019653,668.759155 
	C815.009033,669.880066 811.616089,668.014282 809.772827,662.208984 
	C811.843933,663.254333 812.843689,663.938171 813.949219,664.278137 
	C815.984497,664.904114 818.072144,665.590637 820.159729,665.668457 
	C820.751099,665.690491 822.194214,663.075378 821.915649,662.723450 
	C820.707642,661.197571 819.126465,659.867432 817.452271,658.838318 
	C815.784302,657.813171 813.843445,657.231995 811.749878,656.188721 
z"/>
<path fill="#ECE7F4" opacity="1.000000" stroke="none" 
	d="
M667.235046,647.513794 
	C672.546143,655.112000 669.652161,658.994568 658.339783,659.914490 
	C657.938782,662.862061 657.557617,665.848389 657.049988,668.813110 
	C657.026245,668.951965 655.875427,668.897888 655.002686,668.947754 
	C655.002686,661.333740 655.002686,653.956909 655.002686,645.516296 
	C659.076477,646.108643 663.005615,646.679932 667.235046,647.513794 
M662.979065,648.781738 
	C661.395935,648.781738 659.812744,648.781738 658.190063,648.781738 
	C658.190063,651.772339 658.190063,654.312195 658.190063,658.291992 
	C661.458862,656.743347 664.075195,655.810364 666.179993,654.206238 
	C666.532837,653.937317 664.669067,650.759949 662.979065,648.781738 
z"/>
<path fill="#F2EFF8" opacity="1.000000" stroke="none" 
	d="
M505.283997,658.122192 
	C506.542450,654.645447 507.537109,651.482361 508.827789,648.445007 
	C509.248627,647.454773 510.455780,646.139160 511.277313,646.157166 
	C512.164368,646.176636 513.457214,647.422791 513.820312,648.410645 
	C516.260376,655.048096 518.500122,661.759216 520.988770,668.980469 
	C516.477905,669.124878 516.325684,663.287170 511.175690,663.515198 
	C506.328674,663.729858 505.896271,668.342041 501.293488,670.096558 
	C502.907013,665.219666 504.021149,661.852173 505.283997,658.122192 
M511.395325,661.674927 
	C512.566467,661.516724 513.737610,661.358582 515.137939,661.169434 
	C514.372253,658.955933 513.795959,657.260803 513.199097,655.572937 
	C512.663086,654.057190 512.104553,652.549438 511.253845,650.205811 
	C509.986603,653.730347 509.047272,656.330139 508.117249,658.933289 
	C507.255554,661.345276 508.581451,661.809631 511.395325,661.674927 
z"/>
<path fill="#F9F8FC" opacity="1.000000" stroke="none" 
	d="
M566.525940,574.795898 
	C568.851196,577.287170 567.515686,581.242737 564.016479,583.097290 
	C563.299500,583.477295 562.358704,584.051880 561.718994,583.863770 
	C556.348755,582.285034 550.991211,582.216858 545.404419,584.622070 
	C547.187988,574.901184 550.903015,573.058838 558.571045,576.832520 
	C559.658386,577.367676 561.496399,576.532654 562.936829,576.145264 
	C564.060547,575.842896 565.106384,575.250916 566.525940,574.795898 
z"/>
<path fill="#E8E3F2" opacity="1.000000" stroke="none" 
	d="
M767.776428,645.944824 
	C769.835815,645.944824 771.449585,645.944824 773.063354,645.944824 
	C773.173035,646.587830 773.282715,647.230774 773.392334,647.873779 
	C770.549561,648.291870 767.706787,648.709961 764.537170,649.176147 
	C764.537170,651.194519 764.537170,653.270691 764.537170,655.692993 
	C766.985291,656.146545 769.683350,656.646362 772.381409,657.146240 
	C772.308105,657.694336 772.234802,658.242432 772.161499,658.790466 
	C769.627075,658.951904 767.092712,659.113342 764.412598,659.284058 
	C764.412598,661.550537 764.412598,663.626648 764.412598,665.844360 
	C767.513306,666.244385 770.430237,666.620728 773.347229,666.997009 
	C773.273376,667.550171 773.199585,668.103333 773.125793,668.656494 
	C769.301636,668.656494 765.477417,668.656494 761.367676,668.656494 
	C761.367676,661.269043 761.367676,653.881958 761.367676,645.944824 
	C763.449158,645.944824 765.389954,645.944824 767.776428,645.944824 
z"/>
<path fill="#D7CDE8" opacity="1.000000" stroke="none" 
	d="
M435.882843,669.098328 
	C433.609467,669.098328 431.790283,669.098328 429.635254,669.098328 
	C429.635254,661.413147 429.635254,654.011536 429.635254,646.345886 
	C433.618805,646.345886 437.556244,646.345886 441.493652,646.345886 
	C441.567627,646.954468 441.641571,647.563049 441.715546,648.171631 
	C438.943604,648.479187 436.171661,648.786682 433.021851,649.136169 
	C433.021851,651.294312 433.021851,653.499023 433.021851,655.721802 
	C435.696228,656.171814 438.210724,656.594849 440.725220,657.017944 
	C440.700653,657.579590 440.676086,658.141235 440.651489,658.702881 
	C438.195312,658.918823 435.739136,659.134766 432.974670,659.377869 
	C432.974670,661.484436 432.974670,663.540833 432.974670,665.752686 
	C435.950226,666.168091 438.840454,666.571594 441.730652,666.975037 
	C441.650970,667.682800 441.571320,668.390564 441.491638,669.098328 
	C439.773438,669.098328 438.055237,669.098328 435.882843,669.098328 
z"/>
<path fill="#D7CDE8" opacity="1.000000" stroke="none" 
	d="
M741.683838,661.107788 
	C741.656982,663.229675 741.833313,664.924805 741.569397,666.548401 
	C741.424316,667.440857 740.537842,668.212830 739.985657,669.039124 
	C739.426025,668.219421 738.397522,667.409058 738.380920,666.578491 
	C738.248108,659.941406 738.306702,653.300537 738.306702,646.282959 
	C742.666382,646.282959 746.706665,646.282959 751.617310,646.282959 
	C749.126343,650.685608 744.979431,647.398743 742.058655,649.644226 
	C742.058655,651.238159 742.058655,653.435852 742.058655,655.762146 
	C744.654907,656.178528 747.201050,656.586914 749.747253,656.995300 
	C749.712891,657.377441 749.678589,657.759583 749.644226,658.141724 
	C746.997253,658.978210 744.350281,659.814636 741.683838,661.107788 
z"/>
<path fill="#E8E3F2" opacity="1.000000" stroke="none" 
	d="
M486.242249,660.858887 
	C486.232880,663.328918 486.417908,665.352295 486.116608,667.300598 
	C485.999298,668.058960 484.785706,668.647827 483.145874,670.177124 
	C483.145874,662.237671 483.145874,655.794189 483.145874,649.384949 
	C480.866150,648.777161 478.909760,648.255615 476.953369,647.734070 
	C477.045410,647.295105 477.137451,646.856201 477.229492,646.417236 
	C482.164642,646.417236 487.099823,646.417236 492.035004,646.417236 
	C492.168213,646.803040 492.301422,647.188904 492.434631,647.574707 
	C490.597137,648.138611 488.759674,648.702515 486.242249,649.475037 
	C486.242249,652.866455 486.242249,656.624390 486.242249,660.858887 
z"/>
<path fill="#E8E3F2" opacity="1.000000" stroke="none" 
	d="
M510.143890,641.032410 
	C512.286804,641.294861 514.067993,641.525208 516.151001,641.794617 
	C515.370911,648.513428 509.334015,641.647156 507.360748,645.207336 
	C507.043945,644.813171 506.727142,644.419067 506.410309,644.024963 
	C507.534271,643.016724 508.658234,642.008545 510.143890,641.032410 
z"/>
<path fill="#39068F" opacity="1.000000" stroke="none" 
	d="
M312.298767,567.053345 
	C309.314178,566.324585 306.716309,565.762695 304.235718,564.873657 
	C300.734436,563.618652 298.477173,561.992065 299.374756,557.223206 
	C300.376526,551.901062 295.772583,547.674927 290.320404,547.669617 
	C285.276031,547.664612 281.111450,551.798523 281.941132,557.260498 
	C282.718811,562.380005 280.116455,564.027100 276.278778,565.475586 
	C265.126129,569.684937 252.134415,565.708130 246.309677,556.231262 
	C239.847885,545.717773 241.810120,532.496094 250.809219,524.442078 
	C254.367706,521.257263 258.328918,520.324158 262.774323,521.386169 
	C282.884552,526.190552 303.071716,525.440125 323.191193,521.844116 
	C326.859039,521.188477 328.844666,522.380615 330.983154,524.496338 
	C338.462067,531.895630 340.771332,543.229126 336.752808,552.545288 
	C332.671356,562.007385 324.085602,567.201721 312.298767,567.053345 
M323.690918,549.075623 
	C326.224335,544.593445 326.207001,540.171265 323.148743,535.966736 
	C320.604004,532.468140 317.068024,530.877869 312.741852,531.315186 
	C307.677673,531.826965 303.454315,535.824585 302.529877,540.847351 
	C301.659851,545.574402 304.235352,550.780762 308.523163,552.962952 
	C313.775940,555.636169 318.407196,554.600342 323.690918,549.075623 
M258.071350,551.442383 
	C264.232391,555.309570 269.134338,555.292786 273.630341,551.389221 
	C277.235687,548.258911 278.423523,542.664062 276.387604,538.147278 
	C274.419373,533.780640 270.956055,531.439636 266.220123,531.293640 
	C261.472290,531.147156 257.872833,533.343140 255.633240,537.527649 
	C253.020279,542.409790 254.189438,546.838806 258.071350,551.442383 
z"/>
<path fill="#38058E" opacity="1.000000" stroke="none" 
	d="
M249.225372,595.504761 
	C249.182220,585.489502 249.182220,575.931213 249.182220,565.441467 
	C261.200043,572.727478 272.272339,572.911743 283.528625,566.361633 
	C284.482056,570.150940 284.981171,573.647034 286.307281,576.794678 
	C287.016479,578.478027 289.169678,580.635071 290.637726,580.610107 
	C292.085541,580.585449 294.081940,578.320801 294.787201,576.606689 
	C296.092102,573.435242 296.630280,569.948303 297.664093,565.903015 
	C308.926361,572.861267 319.936829,572.873291 331.458099,565.771729 
	C334.200104,587.611206 332.310242,608.093872 323.009186,627.384033 
	C320.882660,620.469604 319.546570,613.372925 316.567749,607.050171 
	C311.410217,596.102905 302.747009,588.861572 290.039673,589.132812 
	C277.400238,589.402710 269.015320,596.949402 263.971252,607.891418 
	C261.305817,613.673462 260.162476,620.157227 258.217010,626.711365 
	C252.684448,617.281006 250.795532,606.678528 249.225372,595.504761 
z"/>
<path fill="#3B0890" opacity="1.000000" stroke="none" 
	d="
M336.999573,644.136902 
	C343.987793,644.136902 350.476166,644.136902 357.361633,644.136902 
	C357.361633,650.204773 357.361633,656.101685 357.361633,662.415527 
	C313.353394,662.415527 269.178497,662.415527 224.593079,662.415527 
	C224.593079,656.608704 224.593079,650.737671 224.593079,644.495178 
	C239.028717,644.495178 253.413300,644.495178 267.792542,644.495178 
	C269.215881,653.796387 271.470306,656.821228 277.124481,657.059753 
	C283.754456,657.339417 285.882263,654.935120 288.175537,644.384888 
	C289.727112,644.384888 291.335449,644.384888 292.941193,644.384888 
	C295.757202,655.409729 297.614624,657.488586 304.247040,657.051941 
	C309.792664,656.686890 312.289062,653.288574 313.311951,644.136902 
	C320.978149,644.136902 328.738953,644.136902 336.999573,644.136902 
z"/>
<path fill="#38058E" opacity="1.000000" stroke="none" 
	d="
M317.374634,622.828552 
	C317.365173,627.401917 317.424133,631.552673 317.110626,635.675110 
	C317.038239,636.626770 315.690887,637.481506 314.930237,638.380859 
	C314.229279,637.479248 313.201508,636.679871 312.882111,635.658936 
	C311.206696,630.302795 307.865845,627.568176 302.877167,627.737305 
	C297.996185,627.902771 294.845581,631.155090 293.628876,636.564636 
	C293.295074,638.048828 291.626831,639.232910 290.570923,640.554749 
	C289.524170,639.250000 287.765076,638.048462 287.558350,636.622009 
	C286.804779,631.421997 284.066986,628.557861 278.949493,627.789490 
	C274.088867,627.059753 271.187134,629.477295 268.960663,633.517578 
	C268.224060,634.854187 266.501343,635.647400 264.941681,636.924683 
	C259.755981,622.849182 267.665436,602.285522 279.860596,596.026672 
	C291.128998,590.243469 304.303162,593.814697 310.928223,605.297852 
	C313.926239,610.494263 315.233398,616.666260 317.374634,622.828552 
z"/>
<path fill="#3A078F" opacity="1.000000" stroke="none" 
	d="
M262.308594,491.195923 
	C271.653320,489.183228 280.561279,487.128174 289.526978,485.366852 
	C292.058716,484.869537 294.869080,484.734039 297.364227,485.283600 
	C310.514038,488.179932 323.605194,491.343140 336.710510,494.439941 
	C337.326233,494.585419 337.882812,494.981018 339.374390,495.693756 
	C327.704956,498.212708 316.777008,500.067932 306.151794,503.014709 
	C296.580780,505.669128 287.579163,504.625458 278.291962,502.042145 
	C269.665222,499.642548 260.826813,498.005859 252.089096,496.000671 
	C251.212494,495.799500 250.387772,495.372223 249.543076,494.120209 
	C253.659927,493.168457 257.776794,492.216705 262.308594,491.195923 
z"/>
<path fill="#3A078F" opacity="1.000000" stroke="none" 
	d="
M327.256927,502.772980 
	C330.086487,512.701904 327.546783,517.282043 318.176575,518.630005 
	C301.653778,521.006836 285.068176,521.692505 268.529205,518.613403 
	C258.167786,516.684387 256.195129,516.481323 258.662231,501.552002 
	C265.770538,503.209259 273.009827,504.384857 279.901428,506.628448 
	C289.316071,509.693451 298.414856,509.227997 307.776276,506.657867 
	C314.008423,504.946869 320.445557,503.982635 327.256927,502.772980 
z"/>
<path fill="#3A078F" opacity="1.000000" stroke="none" 
	d="
M244.800568,588.935120 
	C246.403183,598.404846 247.528183,607.496094 249.709442,616.326477 
	C250.999222,621.547913 247.868027,623.937195 244.915985,626.113098 
	C241.468887,628.653870 239.629898,624.989502 237.851761,622.744629 
	C222.879028,603.841797 225.276825,584.099243 244.767059,570.471985 
	C244.767059,576.760498 244.767059,582.603699 244.800568,588.935120 
z"/>
<path fill="#39068F" opacity="1.000000" stroke="none" 
	d="
M345.665924,619.605835 
	C344.653503,620.963684 343.935913,622.102478 343.039398,623.076599 
	C341.223114,625.050049 339.606720,628.635376 336.324310,626.130493 
	C333.502136,623.976807 329.878174,621.755249 331.467133,616.813904 
	C336.107574,602.382935 337.881378,587.604553 336.279694,572.474792 
	C336.235840,572.060425 336.492706,571.614319 336.619812,571.144287 
	C351.727631,580.100159 359.834290,600.033936 345.665924,619.605835 
z"/>
<path fill="#3A078F" opacity="1.000000" stroke="none" 
	d="
M363.131958,644.206909 
	C366.370453,644.415894 369.284882,644.262634 371.907349,645.064392 
	C376.337463,646.418823 378.762054,650.873962 378.037201,655.209717 
	C377.293213,659.659851 373.760162,662.642822 368.939362,662.807251 
	C366.804565,662.880066 364.665161,662.819580 361.262238,662.819580 
	C361.749725,656.427490 362.213196,650.350769 363.131958,644.206909 
z"/>
<path fill="#400F93" opacity="1.000000" stroke="none" 
	d="
M274.930786,652.295776 
	C270.470154,646.546814 272.112854,640.405762 273.153625,634.540955 
	C273.389008,633.214355 276.545471,631.392029 278.138214,631.587097 
	C279.971344,631.811584 282.790466,633.838501 283.023956,635.404358 
	C283.696503,639.915283 283.898926,644.696960 283.110199,649.164673 
	C282.419983,653.074219 279.011627,653.992981 274.930786,652.295776 
z"/>
<path fill="#3A078F" opacity="1.000000" stroke="none" 
	d="
M308.878876,648.257324 
	C307.738495,651.982910 305.506439,653.688477 302.052094,652.978577 
	C298.453491,652.239136 297.652313,649.476685 297.762421,646.184509 
	C297.861755,643.214233 297.781189,640.238159 297.787750,637.264648 
	C297.795624,633.688232 299.682983,631.594543 303.146301,631.425354 
	C306.752747,631.249023 308.652557,633.629883 308.919067,636.938965 
	C309.209717,640.547424 308.966766,644.198853 308.878876,648.257324 
z"/>
<path fill="#3B0890" opacity="1.000000" stroke="none" 
	d="
M220.434387,654.941406 
	C220.434433,657.815674 220.434433,660.214600 220.434433,662.613464 
	C219.951859,662.886780 219.469284,663.160095 218.986710,663.433472 
	C214.333359,660.358337 209.680023,657.283203 204.335464,653.751282 
	C209.766159,650.103149 214.336105,647.033264 218.906052,643.963318 
	C219.415482,644.139832 219.924927,644.316345 220.434357,644.492859 
	C220.434357,647.817261 220.434357,651.141663 220.434387,654.941406 
z"/>
<path fill="#400F93" opacity="1.000000" stroke="none" 
	d="
M285.810974,558.639282 
	C286.024261,553.064514 287.720886,551.128540 291.582581,551.948120 
	C295.690521,552.819946 296.056885,555.806885 295.188629,559.243530 
	C293.788635,564.785034 292.348328,570.316284 289.969208,575.836365 
	C288.616058,570.228516 287.262939,564.620605 285.810974,558.639282 
z"/>
<path fill="#400F93" opacity="1.000000" stroke="none" 
	d="
M742.611023,605.232544 
	C741.650085,613.835815 738.580566,616.239624 729.645264,615.482971 
	C729.645264,609.320251 729.645264,603.114563 729.645264,596.906616 
	C737.031494,595.176331 740.874451,597.541565 742.611023,605.232544 
z"/>
<path fill="#3B0890" opacity="1.000000" stroke="none" 
	d="
M647.064209,606.963135 
	C647.064209,603.206116 647.064209,599.932617 647.064209,596.394165 
	C651.757629,595.969666 656.494629,595.848877 658.377502,600.036255 
	C659.821777,603.248291 660.006531,607.864136 658.857422,611.203918 
	C657.229004,615.936951 652.283386,615.959717 647.064209,615.654968 
	C647.064209,612.901428 647.064209,610.174072 647.064209,606.963135 
z"/>
<path fill="#3A078F" opacity="1.000000" stroke="none" 
	d="
M609.427063,602.772278 
	C609.987122,610.047729 607.565613,614.022034 602.391663,614.887451 
	C597.440430,615.715637 593.134399,613.077148 592.034912,608.541321 
	C590.643311,602.800598 592.988892,597.606079 597.601135,596.214783 
	C602.972046,594.594666 607.006165,596.724304 609.427063,602.772278 
z"/>
<path fill="#400F93" opacity="1.000000" stroke="none" 
	d="
M1007.828979,610.259338 
	C1008.841248,606.408325 1009.923706,602.989868 1011.332092,598.542175 
	C1012.882690,603.191711 1014.060852,606.724609 1015.383972,610.691956 
	C1012.607300,610.691956 1010.253235,610.691956 1007.828979,610.259338 
z"/>
<path fill="#400F93" opacity="1.000000" stroke="none" 
	d="
M555.429443,603.494629 
	C555.988953,602.135376 556.387451,601.121948 557.214417,599.018677 
	C558.742004,603.541687 559.906372,606.989136 561.184509,610.773499 
	C558.430847,610.773499 556.032043,610.773499 553.230835,610.773499 
	C553.929749,608.395447 554.599060,606.117920 555.429443,603.494629 
z"/>
<path fill="#3A078F" opacity="1.000000" stroke="none" 
	d="
M882.301270,602.560791 
	C882.008484,600.271118 882.008484,598.328186 882.008484,595.994202 
	C883.284058,595.994202 884.422058,595.656006 885.140076,596.061401 
	C886.878601,597.043274 888.421509,598.371704 890.043213,599.560425 
	C888.385498,600.708984 886.789734,601.968445 885.036621,602.945984 
	C884.421021,603.289246 883.419434,602.940308 882.301270,602.560791 
z"/>
<path fill="#3A078F" opacity="1.000000" stroke="none" 
	d="
M870.854797,652.047852 
	C870.419495,647.967407 873.169128,648.175049 874.969543,648.838013 
	C876.779907,649.504639 878.754150,651.105103 879.468506,652.797729 
	C879.835571,653.667419 877.893738,656.083557 876.475647,656.960449 
	C875.255249,657.715210 873.297485,657.277588 870.853821,657.411682 
	C870.853821,655.616516 870.853821,654.071106 870.854797,652.047852 
z"/>
<path fill="#39068F" opacity="1.000000" stroke="none" 
	d="
M723.821045,653.775330 
	C724.902710,661.046692 722.904846,665.185730 718.183838,666.107483 
	C714.117798,666.901245 710.392029,664.800171 709.101501,660.985535 
	C707.617126,656.597961 709.262878,651.495667 712.780457,649.579285 
	C716.568054,647.515747 720.431030,648.858337 723.821045,653.775330 
z"/>
<path fill="#39068F" opacity="1.000000" stroke="none" 
	d="
M621.071411,665.513672 
	C616.880615,666.823059 612.713684,666.711182 611.281006,662.740662 
	C610.128784,659.547302 610.221069,655.218567 611.493408,652.100403 
	C612.228333,650.299377 616.544678,648.842957 618.976501,649.182800 
	C621.162903,649.488342 623.885803,652.102051 624.757874,654.329529 
	C626.353027,658.403748 625.518494,662.547119 621.071411,665.513672 
z"/>
<path fill="#3A078F" opacity="1.000000" stroke="none" 
	d="
M841.996704,649.566772 
	C846.153076,648.176697 849.675781,648.366577 852.088440,652.026978 
	C854.412537,655.553040 854.788879,659.624878 852.024902,662.709778 
	C850.321533,664.610901 846.887329,666.141479 844.456787,665.862793 
	C842.239563,665.608521 839.366455,663.073792 838.490356,660.866333 
	C836.892517,656.840393 837.558533,652.616577 841.996704,649.566772 
z"/>
<path fill="#3A078F" opacity="1.000000" stroke="none" 
	d="
M539.318970,666.161560 
	C533.854248,663.795898 531.658081,660.713379 533.208374,655.675232 
	C534.021240,653.033630 536.761597,650.013123 539.324097,649.093323 
	C544.010315,647.411194 548.171997,651.191223 548.736755,656.513733 
	C549.338013,662.179199 545.925842,665.855469 539.318970,666.161560 
z"/>
<path fill="#3B0890" opacity="1.000000" stroke="none" 
	d="
M685.068176,648.691284 
	C687.676697,649.686279 690.096313,650.415283 691.824524,651.932068 
	C692.283997,652.335388 691.078918,655.927307 689.819580,656.673096 
	C688.210144,657.626343 685.771240,657.179016 682.457520,657.427795 
	C683.315186,653.974731 683.967712,651.347534 685.068176,648.691284 
z"/>
<path fill="#38058E" opacity="1.000000" stroke="none" 
	d="
M587.390869,648.907104 
	C592.850952,651.195923 594.899841,654.984253 593.769104,659.964050 
	C592.618408,665.031982 589.234680,666.719788 581.248535,666.070740 
	C581.248535,660.500122 581.248535,654.904480 581.248535,648.846741 
	C583.151611,648.846741 585.055908,648.846741 587.390869,648.907104 
z"/>
<path fill="#3A078F" opacity="1.000000" stroke="none" 
	d="
M663.404297,648.854126 
	C664.669067,650.759949 666.532837,653.937317 666.179993,654.206238 
	C664.075195,655.810364 661.458862,656.743347 658.190063,658.291992 
	C658.190063,654.312195 658.190063,651.772339 658.190063,648.781738 
	C659.812744,648.781738 661.395935,648.781738 663.404297,648.854126 
z"/>
<path fill="#400F93" opacity="1.000000" stroke="none" 
	d="
M510.983459,661.674072 
	C508.581451,661.809631 507.255554,661.345276 508.117249,658.933289 
	C509.047272,656.330139 509.986603,653.730347 511.253845,650.205811 
	C512.104553,652.549438 512.663086,654.057190 513.199097,655.572937 
	C513.795959,657.260803 514.372253,658.955933 515.137939,661.169434 
	C513.737610,661.358582 512.566467,661.516724 510.983459,661.674072 
z"/>
<path fill="#F2EFF8" opacity="1.000000" stroke="none" 
	d="
M323.467682,549.373047 
	C318.407196,554.600342 313.775940,555.636169 308.523163,552.962952 
	C304.235352,550.780762 301.659851,545.574402 302.529877,540.847351 
	C303.454315,535.824585 307.677673,531.826965 312.741852,531.315186 
	C317.068024,530.877869 320.604004,532.468140 323.148743,535.966736 
	C326.207001,540.171265 326.224335,544.593445 323.467682,549.373047 
M321.723145,542.601379 
	C321.320740,541.345093 321.301086,539.571106 320.440338,538.934753 
	C318.310242,537.359802 315.641815,535.092957 313.475861,535.366882 
	C311.081116,535.669739 308.017334,538.082397 307.084656,540.337219 
	C306.253296,542.347107 307.163696,546.013367 308.652618,547.865784 
	C312.604767,552.782715 319.253571,550.314392 321.723145,542.601379 
z"/>
<path fill="#F2EFF8" opacity="1.000000" stroke="none" 
	d="
M257.803772,551.179810 
	C254.189438,546.838806 253.020279,542.409790 255.633240,537.527649 
	C257.872833,533.343140 261.472290,531.147156 266.220123,531.293640 
	C270.956055,531.439636 274.419373,533.780640 276.387604,538.147278 
	C278.423523,542.664062 277.235687,548.258911 273.630341,551.389221 
	C269.134338,555.292786 264.232391,555.309570 257.803772,551.179810 
M262.598236,535.833740 
	C259.097839,537.726501 257.255524,540.809326 258.757568,544.439819 
	C259.683105,546.677002 262.162354,549.383240 264.285034,549.718201 
	C266.681152,550.096375 270.438354,548.753906 271.796356,546.862305 
	C273.150696,544.975830 273.148468,541.106934 272.157806,538.781677 
	C270.666870,535.282227 267.122375,534.278809 262.598236,535.833740 
z"/>
<path fill="#3B0890" opacity="1.000000" stroke="none" 
	d="
M321.707642,542.975220 
	C319.253571,550.314392 312.604767,552.782715 308.652618,547.865784 
	C307.163696,546.013367 306.253296,542.347107 307.084656,540.337219 
	C308.017334,538.082397 311.081116,535.669739 313.475861,535.366882 
	C315.641815,535.092957 318.310242,537.359802 320.440338,538.934753 
	C321.301086,539.571106 321.320740,541.345093 321.707642,542.975220 
z"/>
<path fill="#3B0890" opacity="1.000000" stroke="none" 
	d="
M262.946045,535.658813 
	C267.122375,534.278809 270.666870,535.282227 272.157806,538.781677 
	C273.148468,541.106934 273.150696,544.975830 271.796356,546.862305 
	C270.438354,548.753906 266.681152,550.096375 264.285034,549.718201 
	C262.162354,549.383240 259.683105,546.677002 258.757568,544.439819 
	C257.255524,540.809326 259.097839,537.726501 262.946045,535.658813 
z"/>
</svg>