<svg version="1.1" id="Layer_1" xmlns="http://www.w3.org/2000/svg" xmlns:xlink="http://www.w3.org/1999/xlink" x="0px" y="0px"
	 width="100%" viewBox="0 0 512 512" enable-background="new 0 0 512 512" xml:space="preserve">
<path fill="#010100" opacity="1.000000" stroke="none" 
	d="
M312.000000,513.000000 
	C208.025253,513.000000 104.550499,513.000000 1.037875,513.000000 
	C1.037875,342.400238 1.037875,171.800446 1.037875,1.100329 
	C171.558090,1.100329 342.116272,1.100329 512.837219,1.100329 
	C512.837219,171.666534 512.837219,342.333252 512.837219,513.000000 
	C446.133759,513.000000 379.316864,513.000000 312.000000,513.000000 
M103.564415,294.817413 
	C86.028969,293.449371 75.347778,306.185547 75.290314,319.612610 
	C75.172638,347.105804 75.079453,374.601440 75.328377,402.092834 
	C75.446190,415.104401 84.499733,425.410797 97.163269,426.579529 
	C106.219391,427.415314 115.414795,426.741913 124.706863,426.741913 
	C127.805496,411.378052 130.792831,396.221313 134.020370,381.115906 
	C134.330399,379.664978 136.115677,377.438995 137.248184,377.419342 
	C151.727341,377.167816 166.212341,377.253448 181.127701,377.253448 
	C184.477829,393.845093 187.792068,410.258972 191.156967,426.923767 
	C198.370193,426.923767 205.352509,426.926727 212.334839,426.923157 
	C230.599701,426.913849 240.445969,417.142273 240.469925,398.898346 
	C240.503189,373.570770 240.496780,348.243134 240.471909,322.915558 
	C240.453827,304.513245 230.812408,294.828918 212.521515,294.821655 
	C176.529663,294.807343 140.537827,294.817413 103.564415,294.817413 
M410.414307,84.066826 
	C393.133850,70.621315 373.583252,63.672295 351.652161,63.625721 
	C332.661407,63.585388 313.668457,63.456238 294.680847,63.703403 
	C288.224915,63.787441 281.649597,64.282715 275.355103,65.639671 
	C232.250519,74.932175 201.991196,110.288452 199.277557,154.432098 
	C198.549454,166.276337 200.110229,177.897491 204.298569,189.180161 
	C208.299454,188.399612 211.851257,187.706665 215.830704,186.930283 
	C215.830704,181.115677 215.763214,175.482483 215.843079,169.851395 
	C216.103165,151.515900 226.547211,136.978394 243.922745,130.817612 
	C250.191895,128.594772 256.565979,126.663551 262.804199,124.361008 
	C264.336517,123.795425 266.078735,122.575447 266.783508,121.180817 
	C273.561127,107.769051 282.802979,102.959511 297.741119,105.449760 
	C297.741119,110.611977 297.741119,115.790977 297.741119,121.023903 
	C294.477753,121.182182 291.617310,121.067291 288.847107,121.513153 
	C284.397461,122.229317 281.728577,125.629662 281.923401,129.906693 
	C282.128754,134.413757 284.795532,136.842346 288.975830,137.730682 
	C290.418427,138.037262 291.960449,137.921555 293.457062,137.921890 
	C331.272156,137.930344 369.087250,137.931976 406.902344,137.917450 
	C408.620453,137.916794 410.338470,137.754318 412.122833,137.663849 
	C410.107361,127.044579 400.674713,118.265221 389.216248,116.006386 
	C383.388947,114.857635 377.522400,113.907875 371.356140,112.811722 
	C372.292358,107.203430 373.130432,102.183182 374.041626,96.724846 
	C378.812592,97.517303 383.034485,98.267822 387.272217,98.914436 
	C414.568939,103.079506 430.240845,121.252556 430.316071,148.900497 
	C430.347351,160.394882 430.244141,171.890640 430.426819,183.382217 
	C430.448975,184.774582 431.592957,186.983154 432.709229,187.361557 
	C435.607239,188.344009 438.779663,188.517090 441.765717,189.000717 
	C453.787964,156.704147 445.320831,111.969780 410.414307,84.066826 
M386.762390,367.729736 
	C380.590973,363.405060 374.419586,359.080353 367.556152,354.270721 
	C365.896423,370.532410 364.388123,385.310547 362.799103,400.879700 
	C349.081573,390.626556 336.095825,380.920380 323.060455,371.177094 
	C309.726837,381.152588 296.776947,390.840973 283.301575,400.922516 
	C281.685150,385.020569 280.181824,370.231384 278.545319,354.131897 
	C271.734100,358.923248 265.636017,362.906281 259.949554,367.409119 
	C258.345978,368.678925 257.192688,371.448181 257.127014,373.569733 
	C256.828217,383.224945 257.074982,392.895325 256.964539,402.558441 
	C256.852051,412.402527 253.537476,421.123047 247.219223,428.678833 
	C241.155487,435.930176 233.315018,440.339417 224.256927,442.585175 
	C224.256927,448.473175 224.256927,454.053741 224.256927,459.967499 
	C229.826248,459.967499 235.126389,459.967499 240.426544,459.967499 
	C245.891052,459.967499 251.355545,459.967499 256.758575,459.967499 
	C258.899445,440.624115 271.241364,427.298004 288.016266,427.098297 
	C319.504242,426.723389 350.999451,426.924774 382.491333,427.009216 
	C383.863983,427.012878 385.767883,427.867035 386.519592,428.951904 
	C392.478455,437.552063 398.217834,446.304321 404.243378,455.337799 
	C399.624756,458.407013 395.243347,461.318604 390.523315,464.455200 
	C386.416656,458.306213 382.597229,452.290222 378.419037,446.534668 
	C377.338989,445.046844 375.149445,443.499390 373.442627,443.468536 
	C359.783722,443.221680 346.117310,443.234283 332.455414,443.377045 
	C326.011444,443.444397 323.097046,446.593781 323.052216,453.096252 
	C322.983246,463.093414 322.988220,473.091614 323.049194,483.088867 
	C323.090363,489.839539 326.113007,492.932678 332.793304,492.948090 
	C354.288055,492.997772 375.783722,493.073486 397.277557,492.925720 
	C411.294800,492.829376 421.854401,482.191101 422.067902,468.210846 
	C422.195099,459.881500 422.181122,451.547424 422.073822,443.217499 
	C421.684875,413.030396 409.910339,388.086609 386.762390,367.729736 
M393.746613,304.245605 
	C404.959808,292.022675 411.702911,277.818848 413.363770,260.931732 
	C409.583038,261.256012 406.324554,261.757904 403.063232,261.777069 
	C388.243866,261.864105 373.423645,261.852142 358.603943,261.805450 
	C341.521240,261.751617 331.313660,251.502716 331.249115,234.422455 
	C331.231781,229.837494 331.246490,225.252396 331.246490,220.609283 
	C325.427368,220.609283 320.342682,220.609283 314.871033,220.609283 
	C314.871033,226.021103 314.950806,231.157745 314.855774,236.291138 
	C314.592651,250.505661 304.746674,261.306396 290.640076,261.647308 
	C271.555481,262.108521 252.451416,261.761993 232.548904,261.761993 
	C233.545547,266.087952 234.531143,271.059113 235.857239,275.937683 
	C237.347153,281.419067 239.865387,286.106049 244.231110,290.246063 
	C248.207825,294.017242 250.666290,299.389954 253.791183,304.058594 
	C254.788788,305.549011 255.523178,307.325043 256.810059,308.495270 
	C268.202545,318.854950 281.481354,325.724945 296.861389,326.914948 
	C310.771820,327.991211 324.795441,327.857300 338.767944,327.819366 
	C360.085663,327.761475 378.330505,320.086945 393.746613,304.245605 
M248.315079,146.773148 
	C237.311203,151.524323 231.197586,161.253250 232.652237,171.862350 
	C235.082138,171.561310 237.514969,171.009048 239.950134,170.998520 
	C256.947205,170.925095 273.946472,170.818710 290.941589,171.017227 
	C302.411377,171.151199 311.972931,179.341461 314.119843,190.716537 
	C314.909973,194.902908 314.876617,199.244705 315.233643,203.700134 
	C320.516510,203.700134 325.755310,203.700134 331.275452,203.700134 
	C331.275452,200.778503 331.169983,198.122726 331.293243,195.477600 
	C331.918701,182.056381 341.692871,171.303894 354.350525,171.082748 
	C374.101410,170.737701 393.862762,170.991409 413.602203,170.991409 
	C413.602203,165.998672 413.602203,160.270157 413.602203,154.237457 
	C411.442322,154.237457 409.630157,154.237442 407.817963,154.237442 
	C370.489868,154.237427 333.159515,154.007080 295.834930,154.369720 
	C283.729523,154.487320 273.788818,151.684875 267.704102,140.252365 
	C261.264465,142.384964 255.133850,144.415207 248.315079,146.773148 
M246.500000,492.977875 
	C266.889618,492.977875 287.279236,492.977875 307.394287,492.977875 
	C306.965485,487.059814 306.585999,481.822571 306.202698,476.532471 
	C304.607880,476.439484 303.455780,476.313690 302.303680,476.313538 
	C238.488480,476.304779 174.673279,476.298889 110.858093,476.337708 
	C108.543945,476.339142 106.165291,476.528015 103.927971,477.080322 
	C96.609436,478.886993 91.602432,485.924438 92.627823,492.977875 
	C143.558884,492.977875 194.529434,492.977875 246.500000,492.977875 
M232.951050,240.133972 
	C234.615616,243.727768 237.492126,245.160660 241.375595,245.148651 
	C257.374512,245.099167 273.374023,245.186356 289.372589,245.092972 
	C295.047821,245.059845 298.104340,242.095474 298.156036,236.485413 
	C298.280426,222.987411 298.279266,209.486771 298.157562,195.988739 
	C298.109680,190.677505 295.124878,187.473923 289.774353,187.414566 
	C273.444214,187.233368 257.109314,187.223541 240.779495,187.418396 
	C235.116379,187.485977 232.231934,190.909286 232.172485,196.928253 
	C232.068802,207.426666 232.094788,217.927109 232.164825,228.426056 
	C232.189148,232.069183 232.505356,235.710388 232.951050,240.133972 
M408.990845,188.123001 
	C408.185150,187.918121 407.380157,187.537277 406.573700,187.534271 
	C389.612579,187.470993 372.649384,187.298889 355.691254,187.515457 
	C350.726288,187.578873 347.975891,190.998199 347.938751,196.128143 
	C347.842499,209.434402 347.844330,222.742157 347.926575,236.048569 
	C347.964478,242.176987 350.975739,245.084274 357.257721,245.109695 
	C373.059448,245.173630 388.861908,245.180511 404.663544,245.105148 
	C410.770569,245.076035 413.874542,241.995483 413.920654,235.869873 
	C414.018341,222.896332 414.199310,209.913055 413.757111,196.953857 
	C413.659515,194.094040 411.113770,191.317764 408.990845,188.123001 
M178.707031,448.821198 
	C175.030823,430.618500 171.354599,412.415802 167.656281,394.103638 
	C161.034332,394.103638 154.751740,394.103638 148.111847,394.103638 
	C143.737778,415.965607 139.379898,437.746674 134.933975,459.967834 
	C142.780792,459.967834 150.254700,459.967834 157.728592,459.967834 
	C165.336777,459.967834 172.944946,459.967834 180.774139,459.967834 
	C180.075195,456.175690 179.474030,452.914062 178.707031,448.821198 
M335.384644,345.065033 
	C321.709167,343.447235 308.267303,344.379639 294.659729,348.577576 
	C295.364197,355.655365 296.046631,362.511871 296.810394,370.185211 
	C304.324585,364.557892 311.293396,359.731171 317.783630,354.329437 
	C321.596497,351.156067 324.244659,350.742157 328.261261,354.192810 
	C334.722717,359.743866 341.828827,364.544586 349.402435,370.216431 
	C350.123627,362.291534 350.747864,355.432037 351.403778,348.224701 
	C345.984833,347.120514 341.126099,346.130463 335.384644,345.065033 
M306.621368,452.528656 
	C306.913452,449.586700 307.205536,446.644714 307.486481,443.814667 
	C300.550476,443.814667 293.527130,443.176086 286.673462,443.981384 
	C278.674469,444.921295 273.657684,451.875854 274.094208,459.670227 
	C284.807098,459.670227 295.518097,459.670227 306.617981,459.670227 
	C306.617981,457.393585 306.617981,455.425110 306.621368,452.528656 
M430.325684,206.946091 
	C430.325684,216.866333 430.325684,226.786575 430.325684,236.730118 
	C439.752777,236.194626 446.130432,230.267151 446.920837,221.889908 
	C447.658691,214.069641 442.545502,206.637543 434.796204,204.569809 
	C433.224548,204.150467 430.735657,202.358109 430.325684,206.946091 
M215.822662,217.511719 
	C215.822662,213.079834 215.822662,208.647949 215.822662,204.217499 
	C205.988571,204.381058 198.824554,211.785507 199.126617,220.871490 
	C199.426315,229.886963 206.931671,237.028107 215.822662,236.421570 
	C215.822662,230.468475 215.822662,224.487549 215.822662,217.511719 
z"/>
<path fill="#CBD0D8" opacity="1.000000" stroke="none" 
	d="
M104.055191,294.817413 
	C140.537827,294.817413 176.529663,294.807343 212.521515,294.821655 
	C230.812408,294.828918 240.453827,304.513245 240.471909,322.915558 
	C240.496780,348.243134 240.503189,373.570770 240.469925,398.898346 
	C240.445969,417.142273 230.599701,426.913849 212.334839,426.923157 
	C205.352509,426.926727 198.370193,426.923767 191.156967,426.923767 
	C187.792068,410.258972 184.477829,393.845093 181.127701,377.253448 
	C166.212341,377.253448 151.727341,377.167816 137.248184,377.419342 
	C136.115677,377.438995 134.330399,379.664978 134.020370,381.115906 
	C130.792831,396.221313 127.805496,411.378052 124.706863,426.741913 
	C115.414795,426.741913 106.219391,427.415314 97.163269,426.579529 
	C84.499733,425.410797 75.446190,415.104401 75.328377,402.092834 
	C75.079453,374.601440 75.172638,347.105804 75.290314,319.612610 
	C75.347778,306.185547 86.028969,293.449371 104.055191,294.817413 
z"/>
<path fill="#B07845" opacity="1.000000" stroke="none" 
	d="
M410.693604,84.288681 
	C445.320831,111.969780 453.787964,156.704147 441.765717,189.000717 
	C438.779663,188.517090 435.607239,188.344009 432.709229,187.361557 
	C431.592957,186.983154 430.448975,184.774582 430.426819,183.382217 
	C430.244141,171.890640 430.347351,160.394882 430.316071,148.900497 
	C430.240845,121.252556 414.568939,103.079506 387.272217,98.914436 
	C383.034485,98.267822 378.812592,97.517303 374.041626,96.724846 
	C373.130432,102.183182 372.292358,107.203430 371.356140,112.811722 
	C377.522400,113.907875 383.388947,114.857635 389.216248,116.006386 
	C400.674713,118.265221 410.107361,127.044579 412.122833,137.663849 
	C410.338470,137.754318 408.620453,137.916794 406.902344,137.917450 
	C369.087250,137.931976 331.272156,137.930344 293.457062,137.921890 
	C291.960449,137.921555 290.418427,138.037262 288.975830,137.730682 
	C284.795532,136.842346 282.128754,134.413757 281.923401,129.906693 
	C281.728577,125.629662 284.397461,122.229317 288.847107,121.513153 
	C291.617310,121.067291 294.477753,121.182182 297.741119,121.023903 
	C297.741119,115.790977 297.741119,110.611977 297.741119,105.449760 
	C282.802979,102.959511 273.561127,107.769051 266.783508,121.180817 
	C266.078735,122.575447 264.336517,123.795425 262.804199,124.361008 
	C256.565979,126.663551 250.191895,128.594772 243.922745,130.817612 
	C226.547211,136.978394 216.103165,151.515900 215.843079,169.851395 
	C215.763214,175.482483 215.830704,181.115677 215.830704,186.930283 
	C211.851257,187.706665 208.299454,188.399612 204.298569,189.180161 
	C200.110229,177.897491 198.549454,166.276337 199.277557,154.432098 
	C201.991196,110.288452 232.250519,74.932175 275.355103,65.639671 
	C281.649597,64.282715 288.224915,63.787441 294.680847,63.703403 
	C313.668457,63.456238 332.661407,63.585388 351.652161,63.625721 
	C373.583252,63.672295 393.133850,70.621315 410.693604,84.288681 
z"/>
<path fill="#FAD56F" opacity="1.000000" stroke="none" 
	d="
M387.045135,367.944702 
	C409.910339,388.086609 421.684875,413.030396 422.073822,443.217499 
	C422.181122,451.547424 422.195099,459.881500 422.067902,468.210846 
	C421.854401,482.191101 411.294800,492.829376 397.277557,492.925720 
	C375.783722,493.073486 354.288055,492.997772 332.793304,492.948090 
	C326.113007,492.932678 323.090363,489.839539 323.049194,483.088867 
	C322.988220,473.091614 322.983246,463.093414 323.052216,453.096252 
	C323.097046,446.593781 326.011444,443.444397 332.455414,443.377045 
	C346.117310,443.234283 359.783722,443.221680 373.442627,443.468536 
	C375.149445,443.499390 377.338989,445.046844 378.419037,446.534668 
	C382.597229,452.290222 386.416656,458.306213 390.523315,464.455200 
	C395.243347,461.318604 399.624756,458.407013 404.243378,455.337799 
	C398.217834,446.304321 392.478455,437.552063 386.519592,428.951904 
	C385.767883,427.867035 383.863983,427.012878 382.491333,427.009216 
	C350.999451,426.924774 319.504242,426.723389 288.016266,427.098297 
	C271.241364,427.298004 258.899445,440.624115 256.758575,459.967499 
	C251.355545,459.967499 245.891052,459.967499 240.426544,459.967499 
	C235.126389,459.967499 229.826248,459.967499 224.256927,459.967499 
	C224.256927,454.053741 224.256927,448.473175 224.256927,442.585175 
	C233.315018,440.339417 241.155487,435.930176 247.219223,428.678833 
	C253.537476,421.123047 256.852051,412.402527 256.964539,402.558441 
	C257.074982,392.895325 256.828217,383.224945 257.127014,373.569733 
	C257.192688,371.448181 258.345978,368.678925 259.949554,367.409119 
	C265.636017,362.906281 271.734100,358.923248 278.545319,354.131897 
	C280.181824,370.231384 281.685150,385.020569 283.301575,400.922516 
	C296.776947,390.840973 309.726837,381.152588 323.060455,371.177094 
	C336.095825,380.920380 349.081573,390.626556 362.799103,400.879700 
	C364.388123,385.310547 365.896423,370.532410 367.556152,354.270721 
	C374.419586,359.080353 380.590973,363.405060 387.045135,367.944702 
z"/>
<path fill="#EECEB3" opacity="1.000000" stroke="none" 
	d="
M393.502686,304.500366 
	C378.330505,320.086945 360.085663,327.761475 338.767944,327.819366 
	C324.795441,327.857300 310.771820,327.991211 296.861389,326.914948 
	C281.481354,325.724945 268.202545,318.854950 256.810059,308.495270 
	C255.523178,307.325043 254.788788,305.549011 253.791183,304.058594 
	C250.666290,299.389954 248.207825,294.017242 244.231110,290.246063 
	C239.865387,286.106049 237.347153,281.419067 235.857239,275.937683 
	C234.531143,271.059113 233.545547,266.087952 232.548904,261.761993 
	C252.451416,261.761993 271.555481,262.108521 290.640076,261.647308 
	C304.746674,261.306396 314.592651,250.505661 314.855774,236.291138 
	C314.950806,231.157745 314.871033,226.021103 314.871033,220.609283 
	C320.342682,220.609283 325.427368,220.609283 331.246490,220.609283 
	C331.246490,225.252396 331.231781,229.837494 331.249115,234.422455 
	C331.313660,251.502716 341.521240,261.751617 358.603943,261.805450 
	C373.423645,261.852142 388.243866,261.864105 403.063232,261.777069 
	C406.324554,261.757904 409.583038,261.256012 413.363770,260.931732 
	C411.702911,277.818848 404.959808,292.022675 393.502686,304.500366 
M323.464722,311.166504 
	C342.260773,310.318176 358.023224,294.207245 355.403107,278.378662 
	C350.324341,278.378662 345.226929,278.378662 340.198914,278.378662 
	C336.324677,290.101868 331.152313,294.948944 322.829681,294.797577 
	C314.490387,294.645905 309.398438,289.740448 305.994629,278.436157 
	C300.808594,278.436157 295.563171,278.436157 290.331116,278.436157 
	C289.576508,295.750153 304.004547,310.287689 323.464722,311.166504 
z"/>
<path fill="#ECCCB1" opacity="1.000000" stroke="none" 
	d="
M248.659149,146.609299 
	C255.133850,144.415207 261.264465,142.384964 267.704102,140.252365 
	C273.788818,151.684875 283.729523,154.487320 295.834930,154.369720 
	C333.159515,154.007080 370.489868,154.237427 407.817963,154.237442 
	C409.630157,154.237442 411.442322,154.237457 413.602203,154.237457 
	C413.602203,160.270157 413.602203,165.998672 413.602203,170.991409 
	C393.862762,170.991409 374.101410,170.737701 354.350525,171.082748 
	C341.692871,171.303894 331.918701,182.056381 331.293243,195.477600 
	C331.169983,198.122726 331.275452,200.778503 331.275452,203.700134 
	C325.755310,203.700134 320.516510,203.700134 315.233643,203.700134 
	C314.876617,199.244705 314.909973,194.902908 314.119843,190.716537 
	C311.972931,179.341461 302.411377,171.151199 290.941589,171.017227 
	C273.946472,170.818710 256.947205,170.925095 239.950134,170.998520 
	C237.514969,171.009048 235.082138,171.561310 232.652237,171.862350 
	C231.197586,161.253250 237.311203,151.524323 248.659149,146.609299 
z"/>
<path fill="#929AA5" opacity="1.000000" stroke="none" 
	d="
M246.000000,492.977875 
	C194.529434,492.977875 143.558884,492.977875 92.627823,492.977875 
	C91.602432,485.924438 96.609436,478.886993 103.927971,477.080322 
	C106.165291,476.528015 108.543945,476.339142 110.858093,476.337708 
	C174.673279,476.298889 238.488480,476.304779 302.303680,476.313538 
	C303.455780,476.313690 304.607880,476.439484 306.202698,476.532471 
	C306.585999,481.822571 306.965485,487.059814 307.394287,492.977875 
	C287.279236,492.977875 266.889618,492.977875 246.000000,492.977875 
z"/>
<path fill="#67D2F0" opacity="1.000000" stroke="none" 
	d="
M232.819641,239.743225 
	C232.505356,235.710388 232.189148,232.069183 232.164825,228.426056 
	C232.094788,217.927109 232.068802,207.426666 232.172485,196.928253 
	C232.231934,190.909286 235.116379,187.485977 240.779495,187.418396 
	C257.109314,187.223541 273.444214,187.233368 289.774353,187.414566 
	C295.124878,187.473923 298.109680,190.677505 298.157562,195.988739 
	C298.279266,209.486771 298.280426,222.987411 298.156036,236.485413 
	C298.104340,242.095474 295.047821,245.059845 289.372589,245.092972 
	C273.374023,245.186356 257.374512,245.099167 241.375595,245.148651 
	C237.492126,245.160660 234.615616,243.727768 232.819641,239.743225 
M287.103851,228.757935 
	C290.856964,229.122177 290.053009,226.609848 289.692627,224.527954 
	C287.915253,214.260849 279.843750,206.167358 269.539520,204.246658 
	C254.597168,201.461380 239.681595,214.084015 241.143463,228.528351 
	C246.238617,228.528351 251.361298,228.528351 256.540619,228.528351 
	C257.091827,227.197906 257.499359,225.734695 258.252747,224.478973 
	C261.455719,219.140381 269.798737,218.948532 272.091888,224.655579 
	C273.800079,228.906830 276.294647,228.953766 279.695526,228.780060 
	C281.853607,228.669830 284.021881,228.759323 287.103851,228.757935 
z"/>
<path fill="#67D3F0" opacity="1.000000" stroke="none" 
	d="
M409.343109,188.313019 
	C411.113770,191.317764 413.659515,194.094040 413.757111,196.953857 
	C414.199310,209.913055 414.018341,222.896332 413.920654,235.869873 
	C413.874542,241.995483 410.770569,245.076035 404.663544,245.105148 
	C388.861908,245.180511 373.059448,245.173630 357.257721,245.109695 
	C350.975739,245.084274 347.964478,242.176987 347.926575,236.048569 
	C347.844330,222.742157 347.842499,209.434402 347.938751,196.128143 
	C347.975891,190.998199 350.726288,187.578873 355.691254,187.515457 
	C372.649384,187.298889 389.612579,187.470993 406.573700,187.534271 
	C407.380157,187.537277 408.185150,187.918121 409.343109,188.313019 
M404.752441,221.950729 
	C399.826965,208.819473 388.357544,201.764069 376.119904,204.337448 
	C364.316895,206.819427 355.747101,217.303757 356.550781,228.762070 
	C358.145233,228.762070 359.781921,228.785492 361.417755,228.757782 
	C366.697540,228.668365 371.696045,230.017334 375.308990,223.216705 
	C378.457245,217.290756 386.565796,220.532928 389.526245,228.425156 
	C394.796814,228.425156 400.036591,228.425156 405.749115,228.425156 
	C405.438904,226.264923 405.183990,224.489807 404.752441,221.950729 
z"/>
<path fill="#A8B0BB" opacity="1.000000" stroke="none" 
	d="
M178.789948,449.236816 
	C179.474030,452.914062 180.075195,456.175690 180.774139,459.967834 
	C172.944946,459.967834 165.336777,459.967834 157.728592,459.967834 
	C150.254700,459.967834 142.780792,459.967834 134.933975,459.967834 
	C139.379898,437.746674 143.737778,415.965607 148.111847,394.103638 
	C154.751740,394.103638 161.034332,394.103638 167.656281,394.103638 
	C171.354599,412.415802 175.030823,430.618500 178.789948,449.236816 
z"/>
<path fill="#F8C228" opacity="1.000000" stroke="none" 
	d="
M335.825989,345.102722 
	C341.126099,346.130463 345.984833,347.120514 351.403778,348.224701 
	C350.747864,355.432037 350.123627,362.291534 349.402435,370.216431 
	C341.828827,364.544586 334.722717,359.743866 328.261261,354.192810 
	C324.244659,350.742157 321.596497,351.156067 317.783630,354.329437 
	C311.293396,359.731171 304.324585,364.557892 296.810394,370.185211 
	C296.046631,362.511871 295.364197,355.655365 294.659729,348.577576 
	C308.267303,344.379639 321.709167,343.447235 335.825989,345.102722 
z"/>
<path fill="#E7C8AD" opacity="1.000000" stroke="none" 
	d="
M306.619690,452.992615 
	C306.617981,455.425110 306.617981,457.393585 306.617981,459.670227 
	C295.518097,459.670227 284.807098,459.670227 274.094208,459.670227 
	C273.657684,451.875854 278.674469,444.921295 286.673462,443.981384 
	C293.527130,443.176086 300.550476,443.814667 307.486481,443.814667 
	C307.205536,446.644714 306.913452,449.586700 306.619690,452.992615 
z"/>
<path fill="#E5C7AC" opacity="1.000000" stroke="none" 
	d="
M430.329407,206.497406 
	C430.735657,202.358109 433.224548,204.150467 434.796204,204.569809 
	C442.545502,206.637543 447.658691,214.069641 446.920837,221.889908 
	C446.130432,230.267151 439.752777,236.194626 430.325684,236.730118 
	C430.325684,226.786575 430.325684,216.866333 430.329407,206.497406 
z"/>
<path fill="#E6C8AD" opacity="1.000000" stroke="none" 
	d="
M215.822662,218.009186 
	C215.822662,224.487549 215.822662,230.468475 215.822662,236.421570 
	C206.931671,237.028107 199.426315,229.886963 199.126617,220.871490 
	C198.824554,211.785507 205.988571,204.381058 215.822662,204.217499 
	C215.822662,208.647949 215.822662,213.079834 215.822662,218.009186 
z"/>
<path fill="#050404" opacity="1.000000" stroke="none" 
	d="
M323.003235,311.166260 
	C304.004547,310.287689 289.576508,295.750153 290.331116,278.436157 
	C295.563171,278.436157 300.808594,278.436157 305.994629,278.436157 
	C309.398438,289.740448 314.490387,294.645905 322.829681,294.797577 
	C331.152313,294.948944 336.324677,290.101868 340.198914,278.378662 
	C345.226929,278.378662 350.324341,278.378662 355.403107,278.378662 
	C358.023224,294.207245 342.260773,310.318176 323.003235,311.166260 
z"/>
<path fill="#030606" opacity="1.000000" stroke="none" 
	d="
M286.644714,228.758606 
	C284.021881,228.759323 281.853607,228.669830 279.695526,228.780060 
	C276.294647,228.953766 273.800079,228.906830 272.091888,224.655579 
	C269.798737,218.948532 261.455719,219.140381 258.252747,224.478973 
	C257.499359,225.734695 257.091827,227.197906 256.540619,228.528351 
	C251.361298,228.528351 246.238617,228.528351 241.143463,228.528351 
	C239.681595,214.084015 254.597168,201.461380 269.539520,204.246658 
	C279.843750,206.167358 287.915253,214.260849 289.692627,224.527954 
	C290.053009,226.609848 290.856964,229.122177 286.644714,228.758606 
z"/>
<path fill="#030607" opacity="1.000000" stroke="none" 
	d="
M404.840759,222.332703 
	C405.183990,224.489807 405.438904,226.264923 405.749115,228.425156 
	C400.036591,228.425156 394.796814,228.425156 389.526245,228.425156 
	C386.565796,220.532928 378.457245,217.290756 375.308990,223.216705 
	C371.696045,230.017334 366.697540,228.668365 361.417755,228.757782 
	C359.781921,228.785492 358.145233,228.762070 356.550781,228.762070 
	C355.747101,217.303757 364.316895,206.819427 376.119904,204.337448 
	C388.357544,201.764069 399.826965,208.819473 404.840759,222.332703 
z"/>
</svg>